<svg xmlns="http://www.w3.org/2000/svg" viewBox="0 0 630 150"><defs /><path d="M122.3 71.5q0-1-.8-2.8-.7-1.6-2.2-1.6-1.2 0-1.1.8.2.8.3 2.7.3 1.6-.2 4.4-.4 2.6-2.9 6.4-2.9 4.2-6.6 6.3-3.7 2.2-11.5 2.2-2.8 0-4.9-.5V87q.9-1.4 1.4-3.6l1-4.8q.5-2.6 1.4-5.5 1-3 2.6-6 3.4-5.7 7.7-10.3Q111 52.2 117 47q0-.5-.5-.6-.4-.3-.4-.6h-1.7q-3.7 2.2-7 5.4-3.4 3.2-6 6.5-2.6 3.2-4.4 6.1-1.8 2.8-2.4 4.2-2 4.4-2.8 8.2l-1.5 6.9q-.6 2.8-1.7 4.6-1 1.7-3.3 1.7-1.5 0-2.6-.8-1-.9-1-2V6.6h3q7 3.8 9.5 7.7 2.7 3.8 2.7 7.9 0 3.9-1.8 6.7-1.8 3-4 5T87 37q-1.8 1.2-1.8 1.8 0 .9.3 1.2l.3.5h2.6q7.8-6.1 13.8-9.8 6-3.8 10.2-6.2l6.6-3.8q2.5-1.5 3.3-2.9-6-2.9-10.3-5.8-4.3-3-8.3-5.4-3.8-2.5-7.8-4t-9-1.5q-6.6 0-13.7 2.5-7 2.4-13 6.9-5.7 4.3-9.6 10.4Q47 27.2 47 34.4q0 2.9-2 3.7-2.1.7-5.6 1-3.4 0-7.8.3-4.3.1-9.1 1.7-3.8 1.3-7.3 3.1-3.3 1.7-6 4.1-2.5 2.3-4 5.3t-1.5 6.9q0 4.4 1.8 7.9 1.8 3.4 4.8 5.8 3.1 2.2 7.1 3.4 4.1 1.2 8.7 1.2l3.7-.2q2.3-.2 4.3-.7 2.2-.5 3.6-1.2 1.5-.9 1.5-1.8 0-1-.6-1l-2 .4-3.7.8q-2.4.5-6.2.5-7.1 0-12-2.9-4.7-3-4.7-6.5 0-2.7 2-5.4 2-2.8 5.4-4.8 3.4-2.2 7.7-3.4 4.3-1.3 9-1.3 6 0 9.6 1.5 3.8 1.4 3.8 2.2 0 .9-1.2 1l-3.3-.1q-2-.3-5-.3-2.8 0-6.3.6l-3 1q-2 .7-4.2 2t-3.8 3Q19 63.7 19 65.8q0 2.2 2.8 4.7 2.8 2.4 6.7 2.4 1 0 1.6-.3l1.5-.3V71q-1.8-.4-2.7-.4h-1.3q-1.9 0-2.1-.9-.1-.8 1-1.8 1.4-1 4-2 2.8-.8 6.6-.8 3.7 0 5.7.4 2.2.4 3.1 1.2 1 .7 1.2 2 .3 1 .3 2.6 0 4.5-1.2 6.7-1.1 2.2-2.6 3.1-1.4 1-2.6 1.4-1 .3-1 1 0 1 1.6 1.6 1.8.5 2.6.5 3 0 7.4-1.2 4.5-1.2 8.7-3.5 4.3-2.3 7.4-5.7 3.2-3.3 3.3-7.5.3-7.2.2-13.1 0-6-.3-11.6l-.2-11.5-.1-13.1q0-3 .8-5.2.9-2.3 2-4 1.3-1.6 2.3-2.5Q77 6 77.5 6q.6 0 .9.3.2.3.7.3v82.4h-6q-13-2.7-25.9-2-12.8.7-23 4.6-10.3 3.7-16.6 10.4-6.4 6.6-6.4 15.8 0 6.8 4.5 12.1 4.4 5.4 11.6 9.2 7.3 3.7 16.5 5.6 9.1 2 18.5 2 8 0 16.8-.8 9-.7 16.3-2.8 7.3-2 12.1-5.6 4.8-3.5 4.8-9.1 0-4.5-2.5-6.8t-5.5-3.5q-3-1.2-5.5-1.9-2.5-.6-2.5-1.7 0-4 2.8-5.5 2.9-1.4 7-2.5 4-1.1 8.6-2.7 4.7-1.7 8.3-5.7 3-3.4 4.8-7.4 2-4 2.9-7.7 1-3.7 1.2-6.7.4-3.1.4-4.7zm-23 56.6q0 4-5 6.9-5 2.9-12 4.7-7 1.9-14.6 2.7-7.6 1-13 1-7.8 0-16.5-1.7-8.5-1.5-15.7-4.7-7.1-3-11.8-7.4Q6 125 6 119.5q0-4.7 2-7.5 2.1-2.6 5.3-4 3.3-1.5 7.3-2.1l7.9-1 55.2 4-.5 2.4-.4 2.3h-5.3l-12 .2q-7.2.3-14 1.4-6.8 1.2-11.6 3.4-4.8 2.4-4.8 6.8 0 3.8 4.6 6 4.5 2.1 11.6 2.1 6.9 0 12-2.4 5.3-2.2 9.3-5 4-2.8 6.9-5.2 3-2.3 5.1-2.3 2.7 0 5.3.9 2.7.8 4.7 2.1 2.2 1.5 3.4 3.2 1.3 1.7 1.3 3.3zM49.6 16.3q0-6.7-2.2-10.4Q45 2 43.8 2q-.4 0-.9.3-.3.2-.8.2V6l1.3 2.6 1.4 3.4 1 3 .5 1.4q0 .8-.7 2-.6 1.2-1.7 2.4-1 1-2.2 1.9-1 .8-1.8.8-3.2 0-3.7-1.8l-1.5-4.8q-.8-2.3-1.3-5-.5-2.8-1.9-5-1.4-2.5-4.5-4-2.8-1.6-8.5-1.6-2.5 0-5.8 1.2-3 1.2-6 3.2Q4 7.6 2 10.1 0 12.5 0 15q0 3.8 1 7.6 1.3 3.9 4.2 7.1Q8 32.9 13 35q5 2 12.9 2l2.4.1q1.7.2 3.5 0t3.6-.8q1.8-.7 2.8-2.3-2-.8-4-.4l-4.7 1q-2.6.5-6 .5Q20 35 15 33q-3.2-1.3-5.5-3.3-2.3-2.2-3.7-4.6-1.4-2.4-2-4.8Q3 18 3 15.7q0-1 .7-2.3.8-1.2 1.9-2.2 1-1.1 2.1-1.7 1.2-.7 2-.7 3.3 0 4.3 3.2l2.2 7.1q1.3 3.8 4 7 2.9 3.2 9.8 3.2 4.8 0 8.4-1.3 3.7-1.3 6.1-3.3 2.5-2 3.7-4.2 1.3-2.2 1.3-4.2zm7.9 1.6q-.5 2.2-1.2 3.6-.6 1.3-.6 3.5v44.8q0 2-.9 4.4-.7 2.2-1.7 3.8-.8 1.4-1.6 1.6-.8 0-.8-2.4V32.6q0-1.7.3-3 .3-1.2 1-2.7l2.1-3.6 3.4-5.4zm20.3 100.5q-1.3 1.4-4.6 3.5-3.1 2-7 3.8-4 2-8.3 3.3-4.2 1.3-7.5 1.3-2.6 0-4.6-.8-2-.8-2-1.8 0-1.8 2.7-3.7 2.8-1.8 6.8-3.2 4-1.3 8.4-2.2 4.5-.8 8-.8l4 .2q2.2.4 4 .4zm49.3-42q0-.8-.5-2.2-.5-1.5-1.3-2 0 2-.5 5.3-.4 3.3-1.5 7.1-1 3.7-3 7.8-1.9 4-5 7.6-3.7 4.2-8.7 6.1-4.8 1.8-9 3-3.2.8-5.6 1.7-2.4 1-2.7 3.2.1-.7 2-.2l.8.3 1 .2q1.6-1.7 4.6-2.5l6.5-1.8q3.5-.9 7.1-2.4 3.6-1.6 6.5-4.8 3-3.4 4.8-7.4 1.8-4 2.8-7.7 1-3.7 1.3-6.7.4-3 .4-4.7zM72.5 80q3.2-3.6 3.4-7.5.2-7.2 0-13.1 0-6-.2-11.6l-.2-11.5-.1-13.1q0-2.9.7-5.2v-7.2l-.4.4q-2.1 2.5-2.1 7.2v10.8l.3 9.5.3 8.5v14.6l-.1 6q-.4 5.4-4.5 9.5-4 4-9.3 6.8l6.4.8q1.6-1 3-2.2 1.5-1.3 2.8-2.7zm26.3 22.2q-5.3 2.3-10.2 2.5-5 .2-8.4 0l-59.6-3 3.2-.7q1.3-.4 2.8-.6 1.5-.3 3.7-.4l5.9-.1q6.6 0 13.3.7l14.2 1.4q7.6.6 16.1.9 8.7.2 19-.7zm.9-18.8q.3-2.6 1.3-5.5 1-3 2.6-6 3.4-5.7 7.7-10.2 4.3-4.6 10.4-9.9 0-.5-.5-.6-.4-.2-.4-.6h-1.7q-2.8 1.7-5.5 4-2.5 2.1-4.8 4.7-2.2 2.4-4 4.9l-3.1 4.4q-1.6 2.2-2.4 4.6L98 78l-1 4.7q-.3 2.3-1.2 4.2h3.3l.3-1.7.3-1.8zm-18.3 39.8h1.2Q81 125 78 126.6l-5.6 3.2q-4 2.7-9.2 4.7-5.1 2-11.9 2-4 0-7.3-.7 1.7 1.6 5.3 2 3.7.6 6.8.6 6.9 0 12-2.4 5.4-2.3 9.3-5.1 4-2.8 6.9-5.2 3-2.3 5.1-2.3 2.6 0 2.4-.3 0-.3-1.4-.6l-3.1-.6-2.7-.3q-1.2 0-3.2 1.6zm-70.6 2v-1q0-4.6 2-7.4 2.1-2.6 5.4-4 3.2-1.5 7.2-2.1l7.9-1 23.7 1.7 5.2-.6q2.6-.3 5-.1l-38.7-2.8-6.9.9q-3.3.5-6.2 1.5-2.8 1.2-4.6 3.4Q9 116 9 119.5q0 3.1 1.8 5.6zm17-98.9q-.3 0-.4.3-.1.2-.6.2-2.9 0-4.6-2.2-1.6-2.3-3-5.3-1.3-3-2.5-6.3-1.2-3.4-3-5.6h5q2.6 2 3.2 4.5.7 2.4 1 5 .4 2.4 1.3 5 .8 2.4 3.7 4.4zm58.5 17.3h-1.8v43q0-.2.7-.2.5 0 1.1-1V43.7zm-28.2 82q3-1 5.7-2.2 2.8-1.2 5.3-2.6-3.1 0-7 .6-3.8.6-7.3 1.6-3.3 1-5.8 2.1-2.2 1.2-2.2 2.4.2-.2 1.2-.2h2.4q3.7 0 7.7-1.7zM46.3 47v1.8q-2.7 1.2-6 .6-3.4-.6-8.8-.6-5.3 0-9.6 1.2-4.3 1-6.9 2.5l2.4-1.3q1.8-1 4.1-1.8 2.3-1 4.8-1.7 2.6-.7 4.7-.7h15.3zm58.4-25.2q0 1.8-.5 2.8-.3.9-1 1.5l-1.5 1q-.8.5-1.7 1.8l.6-5.4q.3-2 .1-3.7 0-1.7-.7-3.5-.7-2-2.3-5 3 2.5 5 4.9 2 2.3 2 5.6zM86.3 34V11.3h.4q-.5 0-1.2-.5l-1-.8v25.2l.7-.6 1.1-.7zM30.8 83.7h1.5l2.2-.3 2.4-.2q.1-2.4 1.7-3 1.6-.4 3.2-1.5-.2-.2-1.6.5-1.5.6-3.9 1-2.6 0-5.5.8-3 .9-4.8.9-3.6 0-7.1-.8 5.1 2.6 11.9 2.6zM16 66.6v-.7q0-3.3 2.8-5.8 2.7-2.7 5.8-4.3-5 1.6-8.4 4.5-3.3 2.8-3.3 6 0 1.2 2 3 .2-1.5 1-2.7zM6.7 14.9q-.6.6-.6 1.7 0 1 .3 2.3.2 1.2.7 2.4l1 2-.2-1.4v-1.4q0-.4.9-1.9 1-1.4 1.7-2.9.8-1.5 1-2.7 0-1.2-1.6-1.2h-.2q-1.8 1.6-3 3zm35.3 55h2.2q-.3-1.3-1.6-1.5-1.2-.3-5.5-.3h-1l-1.2.2q-.6 0-.9.2-.1.1.6.2v2.5q3-1.2 7.4-1.2zm1.3-37.1q.7-.4.8-1.8l.5-2.6-2.8 1.5q-1.4.7-3 1.2l1.6.6 2 .7v.8l.9-.4zm-5-16.2q-.7-2.3-1.6-4.1v.3q0 1.4 1 3.8 1.1 2.3 1.1 3.7 0 .6.4.2l-.5-1.9-.5-2zm14.2-3l.4-.3.4-.3q-1-2-.9-1.6l.1 2.2zm-35 26.2q1.1-.4 0-.5l-1.3-.2 1.4.7zm26.3 96h.2-.2zM158.3 109.1l23.2-24.8q-.5-.3-1-.9-.7-.7-1.8-.7-.8 0-2.7 2l-3.9 3.9-4 4q-1.7 1.9-2.5 1.9-1.6 0-3.4-1.6-1.8-1.6-3.3-3.8-1.4-2.3-2.4-5-.8-2.6-.8-4.8 0-.5 1.8-1.9l4.7-3.5 6-4.3q3.3-2.4 6.1-4.7 2.9-2.3 4.7-4.2 2-2 2-3.1 0-1-2.3-4.5-2-3.5-4.8-7.2-2.6-3.8-5.1-6.8-2.4-3-3.2-3-.3 0-2.2 1-2 .8-4.3 2l-4.3 2.2-2.7 1.4q-4.5 2.4-6.9 3.3-2.4.9-3.7 1.1l-1.7.4q-.5 0-1 .8v28.9q0 .3-.4.7-.3.2-.3.7l.4 4q.3 3.6.3 6.5v2.7q-.3.9-1.5 2.3-1.2 1.5-2.7 3l-2.5 2.7q-1 1.2-1 1.5 0 .6 1.4 1.1l2 .6q2.4-2.6 3.7-4.3 1.5-1.7 3-2.7l8.2 6.4 4.8 3.9 2.5 1.9 1.6 1zm.7-7l-.7.8q-.2.1-.5.7-5-4-8.1-5.8-3-1.8-4.7-4-1.6-2.5-2-6.7-.6-4.3-.6-13.3l-.2-7q-.2-5.6 1-14.3 0-1.4 2.1-2.5 1.2 0 1.6 2.6.5 2.6.6 6.9v9.8l-.1 11.5v5.9q0 3 .6 5.1.2 1.2 1.2 2l2.4 1.8L155 98q1.9 1.4 4 4zm8.7-37.6l-1.2 1-4.3 3.4q-2.8 2.1-4.4 3.6-.7-1-1-1.2-.4-.3-.4-1.7v-2.8l.3-5.7q.5-4.3.5-11.3 2 1.5 4.5 5.4l6 9.3zm-7.2 19.6q0-.4 1.8-1.9l4.7-3.5 6-4.3q3.3-2.4 6.1-4.7 2.9-2.3 4.7-4.2 2-2 2-3.1 0-1-2-4.1-.4 1.7-2 3.6-1.4 1.8-3.4 3.6T174 69l-4 3q-1.3 1-2.7 1.8-1.3.8-2.5 1.8-4.8 3.1-5.6 5.2-.9 1.9 1.4 6.1l-.2-1.4V84zM163 114l23.2-25q-.5-.2-1-.8-.7-.7-1.7-.7-.9 0-2.8 2l-21 22.3 1.8 1.2q.7.6 1.5 1zm9.4-54q-1 1-2 1.5-1.3-1.5-3-4l-3.3-4.9-2.9-4.6-1.8-3.3.6-1q2.7 1.1 5 4.9 2.6 3.7 7.4 11.5zm-33 42h-.2l-1.7 2-1.8 2v.1q0 .6 1.5 1.1l2 .6 2.5-3.1q1-1.2 2.3-2.4-1.3-1.2-2.1-1.7-.9-.6-2.6 1.3zm22.4-41l-1-1.6-1-1.4q0 2.7-.3 5l-.2 3.8v.5l1-.7 1.2-.9v-2.1l.3-2.7z"/><path d="M223.7 91.2q0-.8-.8-1.7h-2.3l-2 2q-.5.8-1.5.8-2.1 0-3.2-2.2-1-2.2-1.3-5.2-.3-3.2-.3-6.3l.1-5.3q0-4.2.2-8.2 0-4 .2-7l.1-5.1.1-2.2q.4-.7 1.2-1.5l1.8-1.8q1-1 1.6-2 .7-1.3.6-2.6h-2.4l-2 1.8q-1 1.3-2 1.3-.4 0-2.1-1.2l-3.4-2.9-3.4-2.7-1.4-1.2q-1 .6-5.2 4.4l-10.7 10.2q0 .6.3 1.1l.3 1h1.7l2-1.6q.9-.8 1.7-.8 1.6 0 2.3 1.8l.9 2v26.8q0 5.8-1.6 9.4-1.4 3.6-3.4 5.7-1.8 2-3.3 2.8-1.6.8-1.6 1 0 .4.4.7.3.4.3.8h3.2q1.5-2 3-3.4 1.6-1.5 3.7-2.8 5 4.5 7.2 6.9 2.3 2.4 4.6 2.4.4 0 3-2l5.7-4.9q3-2.6 5.3-5 2.4-2.5 2.4-3.3zm-5.5-78l-1.6-2-3.4-3.6-3.5-3.8q-1.7-1.7-2-1.7-.7 0-3.3 2L199 8.4q-3 2.3-5.2 4.3l-2.3 2q0 1.2.7 1.8l2 1.5q1.4 1 3.2 2.8 2 1.7 4 5 2.1-.7 5-2.5 3-2 5.4-4 2.7-2 4.5-3.7 1.9-1.8 1.9-2.4zm-9.5 86.4q0 .6-1 1.5-1 .7-1.3 1.2-3.3-4.1-5.1-5.4-1.8-1.5-2.7-3-.7-1.6-.8-4.8V63.2l.2-1.8.5-3.6.2-3.7v-2.3q-.8-1-2-1.3-1.2-.4-1.2-1.7 0-1.8 1-1.8 1-.1 2.2.7 1.2.9 2.2 2.2 1 1.2 1.2 1.9.4 3.8.2 7 0 3.1-.3 6.2l-.5 6.3q-.2 3.1 0 7 .4 7 .1 10-.2 3-.1 3.2.6 1.2 1.8 2.3l2.4 1.9q1.2.8 2 1.8 1 1 1 2.1zm19.8-3.6q0-.8-.8-1.6h-2.3l-2 2q-.5.7-1.5.7l-4.3 4.1-4.3 3.7q-.3.5-1.1 1.2l-1 1-.2-.2q-2.2.8-2.5 1.5-.4.9 0 1.5.7.6 1.8 1 1 .3 1.8.3.5 0 3.1-2.2 2.6-2 5.6-4.7 3-2.6 5.3-5 2.4-2.5 2.4-3.3zm-11.4-12.6l.1-2.9v-2.4q0-4.2.2-8.1 0-4 .2-7.1l.1-5 .1-2.3q.4-.7 1.2-1.5l1.8-1.8q1-1 1.6-2 .7-1.3.6-2.6h-2.4l-.8.6-1.5 1.2-1.4 1.2-.9.9v.2l-.3 8.3q-.4 6.1-.3 13.2v9q0 2.4.3 4.5.2 1.9 1 2.4l.2-.3q.2 0 .2-.7v-1.5-1.8-1.5zm6-65.4l-1.2-1.2q-1-1-1.7-2l-1.8 1.5-3.4 3q-2 1.6-3.5 3.2-1.5 1.5-1.5 2.1.1.8-1 .8-1.4 0-2.6.8l-2.3 1.4 1 1.5 1.2 1.5q2-.7 5-2.5l5.3-4q2.7-2 4.5-3.7 2-1.8 2-2.4zm-14.8-9.8q0 .7-.7 1.4l-1.4 1.2-1.6 1.3q-.7.6-1 1.3-.5.9 0 2l.9 2.5q.6 1 .7 2 .1.6-1 .6-.8 0-1.9-.7-1-.8-1.9-1.8l-1.8-1.8q-.7-1-1.2-1.3l4.2-4.1q3-2.8 4.8-4.8l1.3 1q.6.2.6 1.2zm-13.7 94.6q-1.8 2-3.3 2.9-1.6.8-1.6 1 0 .3.4.6.3.4.3.8h3.2q1.8-2.2 3-3.4 1.6-1.6.4-2.3-1-.8-2.4.4zM191.8 56l-1.4 1.3q0 .6.3 1.1l.3 1h.8V56zm25 32.8v.2-.2zM297.8 42.3l-1.4-.5q-1.8 2-2.9 3.9-1 1.9-3.6 3.3-7.3-5.6-10.3-8.3-3-2.7-4.6-2.7-4 0-7 .2l-6 .3q-2.9 0-6.4.3l-8.4.1q-2 .6-5.4 5.2-3.5 4.5-8.4 11.7 0 .6.2 1 .3.2.5.6h1.8l.9-1q.8-.9 2.1-1.7 1.1 1.2 2 3.2 1.1 2 1.1 3.3v61q0 1.7-.2 2.3-.2.6-1 1.1l-1.8 1.7q-1.2 1.2-3 4 4.6 2.8 7.4 5l4.4 3.9 2.9 2.5q1.2 1 2.9 1.3 2-3.7 4.3-6.2 2.3-2.6 4.3-4.3 2-1.5 3.8-2.6 1.7-1 2.5-1.7l-5-4q-1.9-1.2-2.8-3-1-1.6-1.2-5-.3-3.4-.3-10.3v-4-2.4q0-1.6 1.1-3.6 4.1 3 6.4 6.2 2.4 3.3 6.1 7.7 2-1 5.3-3.8 3.4-2.7 6.5-5.7 3.2-3.1 5.5-5.9 2.3-2.7 2.3-4v-31q0-5.2.6-8 .7-2.9 1.6-4.4l1.8-2.8q1-1.1 1.4-2.9zm-24.5 16.2v25q0 3-.7 4.6-.7 1.7-1.8 2.8-1.1 1-2.4 1.9-1.3.8-2.6 2-2.2-1.2-3.6-2.4-1.2-1.3-1.8-3.5-.6-2.1-.7-5.4v-19q0-1.2.7-2.2l2-2.4 2.4-2.6q1.3-1.4 2.4-3.2 2 1 3 2.3 1 1.2 3.1 2.1zm-19.2 78q0 2.8-1.6 2.5-1.6-.4-3.7-2-2.2-1.5-4.5-3.5-2.3-1.9-3.7-2.2 2.4-3 3.5-5.6 1.2-2.4 1.6-4.9.3-2.4.2-5.2l-.1-6.1q0-7.5.2-13.5l.4-11.7q.2-5.8.2-11.8.1-6.2-.2-13.6-.1-1.7-.9-2.9-.7-1.3-1.5-2.2-.9-1-1.6-1.5-.7-.6-.7-1 0-1.7 1-1.8 1.1-.2 2.5.5 1.3.7 2.4 2.2 1.2 1.4 1.2 3 .3 8.7.1 16-.1 7-.5 13.9l-.5 14q0 7.2.3 16l.2 1.4q.3.8.4 2 .2 1.3.1 3.1-.1 2-.7 4.9-.9 3.7 0 5 .8 1.3 2.1 1.7l2.6.8q1.2.5 1.2 2.6zm48.5-89.4l-1.4-.5q-2 2.2-2.9 3.9l-1.3 2.4-.9 1.8-.6 2.1v34.7q0 1.3-2.2 4-2 2.7-5.2 5.8-3 3.2-6.6 6.2-3.5 3-6.3 5.1l1.1 1.5 1.3 1.5q2-1 5.3-3.8 3.4-2.7 6.5-5.7 3.3-3 5.5-5.9 2.3-2.7 2.3-4v-31q0-5.2.6-8 .7-2.9 1.6-4.4l1.8-2.8q1-1 1.4-2.9zm-21.1 10.7v21.9q0 5.2-1 8.3-.8 3.1-2.3 5.3-1.4 2-3.3 3.6-2 1.5-4 3.5l-1.2-.8-1.2-1q3.4-2.7 5.3-6 2-3.3 2.9-7.7 1-4.5 1.2-10.4.2-6 .2-14 0-1.5-1.7-4.7-1.7-3.3-6.2-5.3l2.6-2q5.7 4.6 7.1 6.4 1.6 1.7 1.6 3zM255 147.3l.4.2q1.5 1 2.9 1.3 2-3.7 4.3-6.2 2.3-2.6 4.4-4.2 2-1.6 3.7-2.7 1.7-1 2.5-1.7l-2.9-2.5-2.6 2q-1.8 1.1-4.1 3-2.2 1.7-4.5 4.4-2.2 2.6-4 6.4zm9.4-59v-19q0-2.2 2-4 2.2-1.8 3.8-3.8v-1.2l-1.2-.8-1-1q-1.2 1.6-3.3 3.3-2 1.7-2 2.7V75q0 7 .2 10.4.2 3.4 1.6 5v-2zm-.5 23.4v-4-3.2q0-.5-1-1.1l-.9-1v2.2l.1 2.3v6.6l.4 4.2q.2 1.7.6 2.5.4 1 1 1.7l-.2-4.3v-6zm-25.3-51.8l-.5.7q0 .6.2 1 .3.2.5.7h.1v-1.1q0-.5-.3-1.3zM362.8 79.8q0-1-.9-1l-1.4-.7q-3.1 3.8-4.1 6-.8 2-2.4 2-1 0-5.5-1.8-4.4-2-11.6-2-5.7 0-10 1.4-4.2 1.3-6.3 2.2 1-1.9 5.3-5.4l11-8.6q1-.3 3.9 0 2.9.2 5.9 0 3 0 5.5-.9 2.4-1 2.4-3.5 0-.6-.7-.6-1 0-3.5.4t-6.6-.5q.5-1 3.3-4.3 3-3.2 6.2-7.2t5.7-7.8q2.7-4 2.7-6.5l-.1-1.3-.6-2.3q-.5-1.2-1.5-2-1-1-2.5-1-1.8 0-3 1.6-1 1.6-1 2.5l.4 1.5q.5 1.5.2 3.3-.2 1.6-1.8 3-1.4 1.5-5.4 1.5-3.7 0-6.8-1.5-3.2-1.7-5.8-3.9-2.5-2.3-4.4-4.7l-3-4.2h-1.9q-1.4 5.3-3.4 9-2 3.8-3.8 6.4l-3.1 4.5q-1.2 1.6-1.2 3 0 1.2.7 1.5l2.2.9q1.2-1.4 1.4-2.3l.6-2q3.2.4 6.5 1.4 3.4.8 7.4 2 5.5 0 8.9-1 3.3-1.1 4-1.1.2 0 .3.3.1.4.7.4-5.8 6.8-9.6 8.8-3.7 1.8-6.6 2l-5.4.2q-2.6.2-5.6 3.5v1.7l3.6-.2q2-.1 5.2.5l-3.6 3.4q-3.1 2.8-6.7 6.8t-6.6 8.8q-3 4.6-3 9.2 0 3.5 2 6t7 2.5q4.2 0 6.5-2.2 2.4-2.3 2.4-5.3 0-5-4.1-5-.4 0-1.6.5V99q1.2 1.1 3.3 4 0 1.2-2.4 2.4t-4.1 1.2q-3.2 0-4.7-2-1.5-2.2-1.5-3.4 0-2 1.4-4 1.3-2 3.3-3.6 2-1.6 4.2-2.6t3.8-1q4 0 7.5 2.8 3.8 2.8 6.8 6.1 3 3.4 5.1 6.3 2.3 2.7 3.5 2.7 1.5 0 3-1.8 1.5-1.9 2.8-4.2l2.2-4.4 1-2.7q1.4-3.8 2.8-6.3 1.4-2.6 2.5-4.2l2-2.7q.7-1 .7-1.8zm4.8 4.8q0-2-1-1.7-1 .4-2.1 1.7-1.2 1.2-2.3 2.7l-1 1.5q-.7 2-1.8 3.4-1 1.4-2 3.7l.2-.2-1 2.5-2.4 4.6q-1.3 2.4-3 4.5-1.8 2.3-3.6 3.2 2 2.2 3 2.2 1.5 0 3-1.9 1.5-1.8 2.8-4.2 1.3-2.3 2.2-4.3l1-2.7q1.4-3.8 2.8-6.3L365 89l2-2.7q.7-1 .7-1.8zM358 60.1q3.2-4 5.8-7.8 2.6-4 2.6-6.5 0-.7-.5-2.4t-1.3-3v.6q0 2.1-1.4 5-1.4 2.6-3.4 5.6-2 2.8-4.5 5.7l-4.4 5.3q-1.6 1.6-1 1.7l2-.2h-.3l1-.2h1q.9 0 1.1.2l3.3-4zm-16.4 16.6q1-.3 3.9 0 2.9.2 5.9.1 3.1-.1 5.5-1 2.4-1 2.4-3.4 0-.6-.7-.6h-1.2q-1 0-1.5.3-1.6 2-4.8 2.4-3 .5-6.1.5h-2.5l-2.2-.1-2-.1h-.3q-.6 0-1.5.7l-2 1.5-1.9 1.7-1 1q2.3-.4 5.2-.4h1.5l1.5-1.2 1.8-1.4zm2.6-23.6l-3.9.9-2.2.6-1.9.2-3 .1-2.5-.3-4-1q-2.3-.6-4-1.3-1.5-.7-1.5-1.5 0-.2.7-1 .7-.9 2-3.4 3.2 3 6 4.4 2.7 1.5 5.1 2 2.4.6 4.6.4h4.6zm3 43.8q0 1.5-.9 2.4-.8.7-1.5 2.3-1.2-1.1-1.8-2l-1.8-2q-1.1-1.2-3.3-3-2.2-2-6.5-5l.9-.3.6-.2 2.5 1q2.3.9 5 2.2 2.6 1.2 4.7 2.5 2.2 1.4 2.2 2zm-26.1 17.7q4.2 0 6.5-2.3 2.4-2.3 2.4-5.3 0-3.4-1.8-4.5-.2 2.4-1.2 4.5l.6.8q.4.5-.8 1.3-1.2.9-3 1.7-2 .9-4.2 1.3-2 .6-3.3.6-1.4 0-1.2.3.2.3 1.2.6 1 .4 2.3.6 1.4.4 2.5.4zm-2.7-51.9q1.4.6 2 .4 1-.4 1.3-1 .5-.7.6-1.5l.3-1.3q2.8.4 6.2 1.4l6.3 1.7q1.4-.7 2.7-2-4.6.7-9.1-.4l-9-2q-.3.8-1 1.5l-1 1.6v.2q0 1 .7 1.4zm-2.1 39.3l.8-1.2q-.1.2-.5-.2-.2-.4 0-.2v-4.5l2.7-1.3q1-.5 1.8-.5 2 0 3.3.4 1.4.2 3.2.2h.3q-1.3 0-2.6-.8-1.3-1-2.5-1-2 0-4.7 1.7t-4.1 3.8l-.4.8q-.5.8-.5 2 0 .5.5 1.3.5.9 1.8 1.1l.9-1.6zM408 91.2q0-.8-1-1.7h-2.2l-2 2q-.5.8-1.5.8-2.1 0-3.2-2.2-1-2.2-1.3-5.2-.3-3.2-.3-6.3l.1-5.3q0-4.2.2-8.2 0-4 .2-7l.1-5.1.1-2.2q.4-.7 1.2-1.5l1.8-1.8q1-1 1.6-2 .7-1.3.6-2.6H400l-2 1.8q-1 1.3-2 1.3-.4 0-2.1-1.2l-3.4-2.9-3.4-2.7-1.4-1.2q-1 .6-5.2 4.4l-10.7 10.2q0 .6.3 1.1l.3 1h1.7l2-1.6q.9-.8 1.7-.8 1.6 0 2.3 1.8l.9 2v26.8q0 5.8-1.6 9.4Q376 96 374 98q-1.8 2-3.3 2.8-1.6.8-1.6 1 0 .4.4.7.3.4.3.8h3.2q1.5-2 3-3.4 1.6-1.5 3.7-2.8 5 4.5 7.2 6.9 2.3 2.4 4.6 2.4.4 0 3-2l5.7-4.9q3-2.6 5.3-5 2.4-2.5 2.4-3.3zm-5.6-78l-1.6-2-3.4-3.6-3.5-3.8q-1.7-1.7-2-1.7-.7 0-3.3 2l-5.4 4.3q-3 2.3-5.2 4.3l-2.3 2q0 1.2.7 1.8l2 1.5q1.4 1 3.2 2.8 2 1.7 4 5 2.1-.7 5-2.5 3-2 5.4-4 2.7-2 4.5-3.7 1.9-1.8 1.9-2.4zm-9.5 86.4q0 .6-1 1.5-1 .7-1.3 1.2-3.3-4.1-5.1-5.4-1.8-1.5-2.7-3-.7-1.6-.8-4.8V63.2l.2-1.8.5-3.6.2-3.7v-2.3q-.8-1-2-1.3-1.2-.4-1.2-1.7 0-1.8 1-1.8 1-.1 2.2.7 1.2.9 2.2 2.2 1 1.2 1.2 1.9.4 3.8.2 7 0 3.1-.3 6.2l-.5 6.3q-.2 3.1 0 7 .4 7 .1 10-.2 3-.1 3.2.6 1.2 1.8 2.3l2.4 1.9q1.2.8 2 1.8 1 1 1 2.1zm19.8-3.6q0-.8-.8-1.6h-2.3l-2 2q-.5.7-1.5.7l-4.3 4.1-4.3 3.7q-.3.5-1.1 1.2l-1 1-.2-.2q-2.2.8-2.5 1.5-.4.9 0 1.5.7.6 1.8 1 1 .3 1.8.3.5 0 3.1-2.2 2.6-2 5.6-4.7 3-2.6 5.3-5 2.4-2.5 2.4-3.3zm-11.4-12.6l.1-2.9v-2.4q0-4.2.2-8.1 0-4 .2-7.1l.1-5 .1-2.3q.4-.7 1.2-1.5l1.8-1.8q1-1 1.6-2 .7-1.3.6-2.6h-2.4l-.8.6-1.5 1.2-1.4 1.2-.9.9v.2l-.3 8.3q-.4 6.1-.3 13.2v9q0 2.4.3 4.5.2 1.9 1 2.4l.2-.3q.2 0 .2-.7v-1.5-1.8-1.5zm6-65.4l-1.2-1.2q-1-1-1.7-2l-1.8 1.5-3.4 3q-2 1.6-3.5 3.2-1.5 1.5-1.5 2.1.1.8-1 .8-1.4 0-2.6.8l-2.3 1.4 1 1.5 1.2 1.5q2-.7 5-2.5l5.3-4q2.7-2 4.5-3.7 2-1.8 2-2.4zm-14.8-9.8q0 .7-.7 1.4l-1.4 1.2-1.6 1.3q-.7.6-1 1.3-.5.9 0 2l.9 2.5q.6 1 .7 2 .1.6-1 .6-.8 0-1.9-.7-1-.8-1.9-1.8l-1.8-1.8q-.7-1-1.2-1.3l4.2-4.1q3-2.8 4.8-4.8l1.3 1q.6.2.6 1.2zm-13.7 94.6q-1.8 2-3.3 2.9-1.6.8-1.6 1 0 .3.4.6.3.4.3.8h3.2q1.8-2.2 3-3.4 1.6-1.6.4-2.3-1-.8-2.4.4zM376 56l-1.4 1.3q0 .6.3 1.1l.3 1h.8V56zM401 89v.2-.2zM474.6 41.7q0-.2-.6-.6l-1.1-1q-3 4-4.1 5.2-1 1.2-2.3 1.2-.5 0-3.3-1.7l-6.2-4-6.4-4q-2.8-1.8-3.7-2-2.6 3.9-6.8 6.5-4.1 2.6-8.2 4.2-4 1.6-7.1 2.5-3.1.7-3.6 1v40.2q0 4.3-1.3 6.8-1.3 2.4-3 4.1-1.5 1.6-3 2.7-1.2 1-1.2 2.4 0 1.8 1.3 1.2 1.3-.6 3-2.2 1.8-1.6 3.5-3.4 1.8-1.9 2.7-2.6 3.2 2.5 5 4.3l3 2.8 1.9 1.6q.7.6 1.4.6 1.8 0 3.4-1.2 1.7-1.4 3.4-3.3l3.7-4q2-2.4 4.6-4.2.6 2 .4 3.4 0 1.2-.3 2.4t-.4 2.5q0 1.4.7 3.5.9 2.5 3 5l4 5q2 2.6 3.6 5.4 1.7 2.9 1.7 6 0 4.1-3 6.9-3 2.7-8.8 2.7-3.5 0-5.3-1.6-1.6-1.7-1.6-3.4 0-2 1.2-3 1.3-1 2.8-1.7l2.8-1.2q1.3-.6 1.3-1.7 0-.2-2.1-2.5l-5-4.7-5.1-4.7q-2.6-2.2-3-2.3-1.2 1.8-2.3 3.9-1 2-2.5 4-1.5 2.2-3.9 4-2.4 2-6.6 3.3v2.4q5.3.2 8 2.4 2.6 2.1 4.9 4.5 2.2 2.6 5.2 4.6 3 2 9.2 2 4.2 0 8.5-2 4.5-2 8-5.2 3.4-3.2 5.6-7.4 2.3-4.2 2.3-8.7 0-3.3-.9-6.8-.7-3.4-1.4-5.3l-.8-2.2V49q0-1.3.7-2.3l1.7-1.9 1.5-1.7q.9-.7.9-1.4zM450 55.2v32q0 .8-.7 1.5l-1.4 1.6-1.7 1.4-1 1q-3.4-1.1-4.4-2.4-.9-1.5-.9-3.2l.4-3.6q.4-1.9-.7-4.3V48.1h1.2q.5 0 2 1 1.5.8 3 2 1.7 1 3 2.3 1.2 1.2 1.2 1.8zm29.4-8.7q0-1.7-1-1.2t-2.1 1.7q-1.1 1-2 2.3l-.7.8-.8.9v53l.4 1.8 1.1 3.5 1.1 4.5q.5 2.6.5 4.8 0 5.6-3 10.7-3 5.2-7.6 9-1 1.4-3.1 2.6-2 1.3-4.3 2.1-2.4.9-5 1.4-2.4.6-4.4.6-2.5 0-4.5-.4l.2.1q3 2 9 2 4.3 0 8.6-2 4.5-1.9 8-5.1 3.4-3.3 5.6-7.5 2.3-4.2 2.3-8.7 0-3.3-.8-6.8-.8-3.4-1.5-5.3l-.8-2.2V53.8q0-1.3.7-2.2.8-1.1 1.7-2 .8-1 1.5-1.6.9-.8.9-1.5zm-18.9 66.7q-1.4-2-2.8-3.3-1.3-1.4-2.2-2.7-.9-1.3-1.4-3.1-.4-2-.3-5l.5-12.4q0-5.6.2-10.9l.1-10.9.3-12.5q-1.2-1.4-3.2-2.8-1.8-1.4-3.6-2.5l-3.1-1.8q-1.3-.7-1.3-1 0-.3.3-.6.4-.2.6-.8 2.2 1 4.5 2.3 2.3 1.2 4 2.8 2 1.4 3.2 3.2 1.3 1.7 1.3 3.5v46.7q0 3.2.7 6 .9 2.8 2.2 5.8zm-24-11.3q-.4.7-2.2-.2-1.8-1-4-2.7-2-1.6-3.7-3.4-1.7-1.8-1.7-2.8v-33q0-5 .7-6.3.9-1.3 2.4-2.2V65l.2 6.4q0 3.2.4 7.3.4 3.9.3 6.4 0 2.4-.3 4 0 1.5-.2 2.4-.1.7.2 1.3.4.6 1.4 1.4l2.3 2q1.3 1.2 2.4 2.6 1.2 1.3 1.8 3.1zm3.7 34q-1.6-1-2.4-2l-2-2.2q-.9-1-2.7-2.4-1.7-1.3-5-2.8 2.1-1.5 3.3-2.7 1.3-1 2.2-2.2 1-1 1.7-2.2l1.8-2.8 1.6 1.2q.9.6.9 1.4 0 .8-.7 1.5l-1.7 1.4q-1 .7-1.7 1.5-.7.7-.7 1.4 0 1 .6 2 .6.9 1.3 1.5.8.7 1.6 1 .7.4.8.7 1 1.8.5 3-.4 1.2.6 2.8zm5-47.2v-.4q.3-1.9-.8-4.3V53.2l-1-.4-.8-.5v26.3q.8 2 .8 4.5 0 1.3-.2 2.1L443 87v.6q0 .6.3 1 .5.6 1.7.2zm-2.5 22.2q.9-.6 1.7-1.4l1.7-1.7q1-1 .6-2.4t-.4-2.5v-1q0 .5-1 1.6l-2.5 2.3-2.6 2.3-2 1.4 1.4 1.2 1.6 1.2q.6-.2 1.5-1zm6.7 23.6l.3-.1q1.2-1 2.8-1.7 1.6-.5 2.6-1 1-.6 1-1.5 0-1-1.7-3h-.1l-1.1.8-2.7 1.8q-1.4 1-2.7 1.7-1.2.8-1.2 1 0 1.6 2.8 2zM421.8 105q-1.6 1.6-3 2.6-1.3 1-1.3 2.5 0 1.8 1.2 1.2 1.2-.5 2.7-1.8 1.6-1.3 3-2.9l1.7-2-1-.9-1.4-1.2-1 1.5q-.4.6-.9 1zm4.2 28.3h.8l-.4-.3h-.4v.3zM505.8 100.2q0-.4-2-2.2-1.9-2-4.3-4l-4.4-3.7-2.4-2-5.2 5.8-6.7 6.9q0 .4 1.6 2.1l3.9 3.5 4.2 3.4q2 1.7 3 2.1 5.3-3.8 8.8-7.3 3.5-3.6 3.5-4.6zm4.8 4.9q0-2.6-1.2-2.3-1.1.2-3.3 2l-5 4.6q-2.7 2.7-6 5.3h.2q1 1 1.7 1.4l1.3.9q5.3-3.9 8.8-7.5 3.5-3.5 3.5-4.4zm-15.3.6l-.5.4q-.6.6-1.5.3l-2-1.2-2.3-1.8q-1.2-1.1-2.4-1.8 2.7-1.7 3.8-3l2.3-3.5q1 .2.7 1-.1.9-.7 1.9-.6.8-1.4 1.5l-.7.6q0 .9 1.7 2.2 1.7 1.3 3 3.4zM558.9 42q0-2-1.2-1.5-1 .4-2.6 1.8-1.5 1.4-3 3.2l-2.3 2.5q-3.5-3.4-5.6-6-2-2.8-6.6-5.3-1.5 1.6-6.2 7.4l-11.7 14.4q0 .6.7 1.1.9.5 1.6.5 1.2 0 2.9-2.2 1.8-2.1 4.5-4.3 1.6 1.7 2.2 4.8.7 3 .9 6.4.2 3.2 0 6.4l-.2 4.8-.2 8.9-.2 10.2q0 6 2.5 9.8 2.5 3.8 5.6 7 3.2 3.3 5.7 6.7 2.5 3.6 2.5 9.3 0 5-3.2 8.4-3.3 3.5-7.9 3.5-1.6 0-4-1.6-2.4-1.4-2.4-3.5 0-1.9 1.4-3 1.4-1 3.1-1.8l3.3-1.4q1.5-.6 1.5-1.8 0-.7-.8-1.2l-2.3-1.6q-1.4-1-3.7-3.1-2.2-2-5-5.5h-2.5q-1 2.1-2.7 3.5-1.7 1.4-3.4 2.5-1.7 1.2-3 2.4-1.2 1.2-1.2 3.1 0 2 2 4.7 2 2.8 5 5.2 3 2.5 6.7 4.2 3.7 1.7 7 1.7 4.7 0 8.5-2 3.8-2.1 6.6-5.5 2.9-3.4 4.3-7.6 1.6-4 1.5-8.4 0-.7-1.1-3.8l-2.3-6.5-2.4-6.2-1-2.8-.2-12 .1-10.4.4-10.5.5-11.9q0-2 1.3-4 1.3-1.8 2.8-3.5l2.6-3.2q1.2-1.4 1.2-2.2zm-2.5-26q0-.3-1.8-2-1.8-1.9-4.2-4-2.3-2-4.5-3.5-2.1-1.7-2.7-1.7-.2 0-2.2 1.8l-4.3 3.8-4.2 3.9q-1.8 1.8-1.8 2-.2.4 1.5 2.4t4 4.2l4.3 4q2.2 1.7 3 1.7.7 0 2.8-1.8l4.3-4.2 4-4.3q1.8-2 1.8-2.2zm-17.7 45.5l-.2 15.7-.3 14.3v10.7l-1.9-3.4-1-2-.3-1V59.7q0-2.9-.4-4.5-.3-1.8-.8-2.8-.4-1-.9-1.4-.3-.5-.3-.9 0-.2.7-.8.8-.6 1.7-1.8 3.7 1.7 3.8 5 .3 3.3 0 9zm25-14.6q0-2-1-1.7-1.2.2-2.6 1.7l-2.8 3-2.1 2.4q-1.2 1.5-1.3 3v4.6l-.2 1.4v-.1l-.4 13.7q-.2 6.1-.2 13v10.7q-.2 2.1 2 5.6l-.3-6v-5.5q0-8.3.3-15.7l.7-17.1q.1-2 1.3-4 1.3-2 2.8-3.6l2.6-3.1q1.2-1.5 1.2-2.3zm-14 94.2q-2.5 2.8-6.4 3.6-3.9.9-7.2.9-1.6 0-3-.4l.8.5q1.7 1 3.6 1.3 2 .4 3.4.4 4.7 0 8.5-2 3.9-2.1 6.6-5.5 2.9-3.3 4.3-7.6 1.6-4 1.5-8.4 0-.7-1-3.3-.8-2.7-1.5-4.4.7 2 .7 3 0 5.7-2.4 11.2-2.4 5.6-6.8 9.4l-1 1.3zm.4-114.3q0 1.7-1.5 1.7h-.6q-1.8 0-2.4.8-.5.7-.3 1.7.3.8 1.1 1.7 1 .7 2 .7.6 0 2.7-1.8 2.2-2 4.3-4.2l4-4.3q1.8-2 1.8-2.2 0-.4-1.8-2.2l-1.1-1-3.6 4-4.7 4.7.1.4zm-4.8-4.8q0 1.7-1.5 1.7-1.4 0-2.8-2-1.5-1.9-6-4.9l3-3q1.8-1.8 3.4-3.1Q543 9.2 544 9q1.2-.2 1.2 1.6 0 1-.8 1.6l-1.7 1.2q-1 .5-1.8 1.3-.7.6-.7 1.6 0 .4.7 1.2l1.8 1.6q1 .7 1.7 1.6.8.8.8 1.3zm-16.5 99q0 1.2-.8 1.8-.7.8-1.7 1.2l-1.7 1.3q-.7.6-.7 1.5 0 .6.6 1.1l1.3 1q.8.4 1.4 1 .6.4.6 1.1 0 1.2-.4 2-.2.7-.2 1.6l-5-3.7q-1.9-1.4-1.9-3.4 0-1.8 2.4-3.3 2.4-1.6 6.1-3.3zm7.7 15.7l.4-.3q2.2-1.5 4.5-2.3 2.2-.6 3.3-3.2-.2-.5-1-.8l-1.4-.9q-.5.7-2 1.5l-3 1.4-2.6 1.3q-1 .7-1 1.3 0 .5 1.3 1.1l1.5.9zm-12-73.4q0 .6.7 1.1.9.5 1.6.5 1 0 2.2-1.2l-.3-2.5v-2.8l-.7.6q-.2.4-.5.6l-.2.3-1.3 1.6-1.5 1.8zM625.2 37q0-.6-.9-2-.7-1.6-2.4-1.6-1.4 0-1.9 1-.3.8-.6 2.5-.1 1.6-.5 3.7-.2 2.2-1.5 4.7H616q-3.3-1.8-4.5-3.4-1-1.6-1.6-3-.4-1.4-1-2.5-.4-1.2-2.2-2-6.9 5.3-12.7 7.7-5.8 2.4-10.3 3.6-4.3 1-7 1.8-2.6.6-3.2 2.5l-.5 6.7q-.3 6.5-.3 21 0 1 1.2 1.3 1.2.3 1.9.3.6 0 2.9-.7l5-1.8 4.6-1.7 2.3-.8q.8 0-1.5 2.4-2.1 2.4-5.1 5.3l-5.4 5.4-2.6 2.5q-7.7 9.1-7.7 15.2 0 1.8.3 3 .2 1.2 2.9 1.2 2 0 2.9-.5 1-.4 1-2.5 0-1.4-.4-3t-.4-3q0-1.5.8-2.5 1-1 3.3-1 5.3 0 8.2 3.7 2.8 3.6 3.2 7.4h3.1q4-4 9-6.7 5.1-2.8 9.7-4.4 4.7-1.7 8-2.4 3.5-.8 4.1-.8V61.8H620l-5.2 1.5q-3.2 1-7.2 1 4.3-4 7.6-8.4 3.2-4.6 5.5-8.5 2.3-4 3.4-6.9 1.2-2.9 1.2-3.5zm-15.8 18.3q0 .5-1.4 2.5-1.3 2-3.5 4.5-2.1 2.2-5 4.3-2.7 2-5.6 2.4V49.6q6.3 2 10.9 3.9l4.6 1.8zm-5.6 34.6q-3-1.3-4-2-1.2-.9-2.5-1.2-1.3-.4-3.8-.5l-8.2-.1 2.4-2.3 5.2-5q2.8-2.7 5.7-5.1 3-2.4 4.6-3.1l.7 7q.3 2 .3 3.3 0 1.2-.3 3l-.1 6zm-8.8 22.8h3.1q4-4 9-6.7 5.1-2.7 9.7-4.4 4.7-1.7 8-2.4 3.5-.8 4.1-.8V66.6h-1.8v30l-3 .5q-2.5.4-6.1 1.5-3.6 1-7.8 2.6-4.2 1.6-8.2 4-.9 1-2 1.7l-2.3 1.4v-.1q0 .7-.6 1l-1.1.7q-.5.3-.9 1-.3.5 0 1.8zm-14-38.4l-1.6.2-1.3.3-.9-19q.6-1.8.7-2.7.2-1 .8-2.6h2.3q.8 2.7 1 4.9.4 2.2.3 4.7-.1 2.4-.5 5.8l-.8 8.4zm31-6.3l-.9 25.6-1.3.3-1 .2q-.4-1-.7-3l-.3-4.2q0-2.3-.2-4.2v-2.8l-.2-3.6q-.1-1.8.1-3.3.4-1.7 1.3-3 1-1.3 3.2-2zm18-26.2q0-.5-.6-1.7-.6-1.3-1.6-1.6-1 2.7-4 8.9-3 6-8.2 12.6l1.8-.6 1.9-.6h2l2.7-4.6 2.9-5.3 2.1-4.4q1-2 1-2.7zm-32 56.9q0 1-1.5 2.3l-3.6 2.5q-.5-2.9-2-4.6-1.4-1.7-3.3-2.5-2-.8-4.2-1l-4.3-.8q.6-.4 2.5-1.2 1.8-.8 2.5-.8l2.4.3q2.3.4 4.8 1.2 2.5.7 4.6 2 2.1 1 2.1 2.6zm-24.6 13.6l.1.6q.1 1.2 2.9 1.2 2 0 2.9-.5 1-.4 1-2.5 0-1.4-.4-3t-.4-3q0-3.2 3.9-3.5-2.2-1.8-4.6-1.8-1 0-1 .6 0 1.2.3 2.7.3 1.5.3 3.2 0 3.7-1.2 4.8-1 1-3.8 1.2zM601 80.5v-1.7q0-1-.3-2.8l-4 3.4-4 3.8q3.4 0 5 .3l1.6-1.4q.9-.7 1.7-1.6zm4.7-30.9l-5-1.8q-2-.8-5-2.9l2.3-1.3q1.1-.7 2-.7 1.7 0 2.8 2.5 1.2 2.6 3 4.2zm-7 14.2v-9.4l-.7-.2-1-.4V65l1.7-1zm-20.5 19.7l2.2-2.1q-.4.3-1.5.5-1 0-1.3.2v.4q0 .7.6 1zm16.8 15q-.2-.5-1.2-1 .1.6.4.7l.8.4z" /></svg>