<?xml version="1.0" encoding="UTF-8" standalone="no"?>
<svg
   xmlns:dc="http://purl.org/dc/elements/1.1/"
   xmlns:cc="http://creativecommons.org/ns#"
   xmlns:rdf="http://www.w3.org/1999/02/22-rdf-syntax-ns#"
   xmlns:svg="http://www.w3.org/2000/svg"
   xmlns="http://www.w3.org/2000/svg"
   xmlns:sodipodi="http://sodipodi.sourceforge.net/DTD/sodipodi-0.dtd"
   xmlns:inkscape="http://www.inkscape.org/namespaces/inkscape"
   version="1.1"
   id="svg2"
   viewBox="0 0 630.00001 149.99999"
   height="150"
   width="630"
   inkscape:version="0.91 r13725"
   sodipodi:docname="logo.svg">
  <sodipodi:namedview
     pagecolor="#ffffff"
     bordercolor="#666666"
     borderopacity="1"
     objecttolerance="10"
     gridtolerance="10"
     guidetolerance="10"
     inkscape:pageopacity="0"
     inkscape:pageshadow="2"
     inkscape:window-width="1596"
     inkscape:window-height="877"
     id="namedview4151"
     showgrid="false"
     units="px"
     inkscape:zoom="1.8333333"
     inkscape:cx="321.54546"
     inkscape:cy="-144.36847"
     inkscape:window-x="0"
     inkscape:window-y="19"
     inkscape:window-maximized="0"
     inkscape:current-layer="svg2" />
  <defs
     id="defs4" />
  <metadata
     id="metadata7">
    <rdf:RDF>
      <cc:Work
         rdf:about="">
        <dc:format>image/svg+xml</dc:format>
        <dc:type
           rdf:resource="http://purl.org/dc/dcmitype/StillImage" />
        <dc:title></dc:title>
      </cc:Work>
    </rdf:RDF>
  </metadata>
  <g
     transform="translate(695.94289,-301.75174)"
     id="layer1">
    <g
       transform="matrix(2.0036197,0,0,2.0036197,698.46197,-452.19597)"
       id="text4136"
       style="font-style:normal;font-variant:normal;font-weight:normal;font-stretch:normal;font-size:60px;line-height:125%;font-family:'Myriad Pro';-inkscape-font-specification:'Myriad Pro';letter-spacing:0px;word-spacing:0px;fill:#000000;fill-opacity:1;stroke:none;stroke-width:1px;stroke-linecap:butt;stroke-linejoin:miter;stroke-opacity:1">
      <path
         id="path4141"
         style="font-style:normal;font-variant:normal;font-weight:normal;font-stretch:normal;font-family:EmbossedBlackWide;-inkscape-font-specification:EmbossedBlackWide"
         d="m -634.92288,411.98507 q 0,-0.54 -0.36,-1.38 -0.36,-0.84 -1.14,-0.84 -0.6,0 -0.54,0.42 0.12,0.42 0.18,1.32 0.12,0.84 -0.12,2.22 -0.18,1.32 -1.44,3.18 -1.44,2.1 -3.3,3.18 -1.86,1.08 -5.76,1.08 -1.38,0 -2.4,-0.24 l 0,-1.2 q 0.42,-0.72 0.66,-1.8 0.24,-1.08 0.48,-2.4 0.3,-1.32 0.72,-2.76 0.48,-1.44 1.32,-2.94 1.68,-2.88 3.84,-5.16 2.22,-2.34 5.16,-4.92 0,-0.24 -0.24,-0.3 -0.18,-0.12 -0.18,-0.3 l -0.84,0 q -1.86,1.08 -3.54,2.7 -1.68,1.62 -3,3.24 -1.26,1.62 -2.16,3.06 -0.9,1.38 -1.2,2.1 -0.96,2.16 -1.38,4.08 -0.42,1.92 -0.78,3.42 -0.3,1.44 -0.84,2.34 -0.48,0.84 -1.62,0.84 -0.78,0 -1.32,-0.42 -0.54,-0.42 -0.54,-0.96 l 0,-40.02 1.56,0 q 3.48,1.92 4.74,3.84 1.32,1.92 1.32,3.96 0,1.92 -0.9,3.36 -0.9,1.44 -1.98,2.46 -1.08,1.02 -1.98,1.68 -0.9,0.6 -0.9,0.9 0,0.42 0.12,0.6 0.18,0.18 0.18,0.24 l 1.26,0 q 3.9,-3.06 6.9,-4.92 3,-1.86 5.1,-3.06 2.1,-1.2 3.3,-1.92 1.26,-0.72 1.62,-1.44 -2.94,-1.44 -5.1,-2.88 -2.16,-1.5 -4.14,-2.7 -1.92,-1.26 -3.9,-1.98 -1.98,-0.78 -4.5,-0.78 -3.3,0 -6.84,1.26 -3.54,1.2 -6.48,3.42 -2.88,2.16 -4.8,5.22 -1.86,3.06 -1.86,6.66 0,1.44 -1.02,1.86 -1.02,0.36 -2.76,0.48 -1.68,0.06 -3.9,0.18 -2.16,0.06 -4.56,0.84 -1.86,0.66 -3.6,1.56 -1.68,0.84 -3,2.04 -1.26,1.14 -2.04,2.64 -0.72,1.5 -0.72,3.42 0,2.22 0.9,3.96 0.9,1.68 2.4,2.88 1.56,1.14 3.54,1.74 2.04,0.6 4.32,0.6 0.72,0 1.86,-0.12 1.14,-0.12 2.16,-0.36 1.08,-0.24 1.8,-0.6 0.72,-0.42 0.72,-0.9 0,-0.48 -0.3,-0.48 -0.24,0 -0.96,0.18 -0.66,0.18 -1.86,0.42 -1.2,0.24 -3.12,0.24 -3.54,0 -5.94,-1.44 -2.4,-1.5 -2.4,-3.24 0,-1.38 1.02,-2.7 1.02,-1.38 2.7,-2.4 1.68,-1.08 3.84,-1.68 2.16,-0.66 4.5,-0.66 3,0 4.8,0.72 1.86,0.72 1.86,1.14 0,0.42 -0.6,0.48 -0.54,0 -1.62,-0.06 -1.02,-0.12 -2.46,-0.12 -1.44,0 -3.18,0.3 -0.42,0.06 -1.5,0.48 -1.02,0.36 -2.1,1.02 -1.08,0.6 -1.92,1.44 -0.78,0.84 -0.78,1.86 0,1.14 1.38,2.34 1.44,1.2 3.36,1.2 0.54,0 0.78,-0.12 0.3,-0.12 0.78,-0.18 l 0,-0.66 q -0.9,-0.24 -1.38,-0.24 l -0.6,0 q -0.96,0 -1.08,-0.42 -0.06,-0.42 0.54,-0.9 0.66,-0.54 1.98,-0.96 1.38,-0.42 3.3,-0.42 1.8,0 2.82,0.18 1.08,0.18 1.56,0.6 0.48,0.36 0.6,0.96 0.12,0.54 0.12,1.32 0,2.28 -0.6,3.36 -0.54,1.08 -1.26,1.56 -0.72,0.48 -1.32,0.66 -0.54,0.18 -0.54,0.54 0,0.48 0.84,0.78 0.9,0.24 1.32,0.24 1.44,0 3.66,-0.6 2.28,-0.6 4.38,-1.74 2.1,-1.14 3.66,-2.82 1.62,-1.68 1.68,-3.78 0.12,-3.6 0.06,-6.54 0,-3 -0.12,-5.76 -0.06,-2.82 -0.12,-5.76 -0.06,-2.94 -0.06,-6.54 0,-1.44 0.42,-2.58 0.42,-1.14 1.02,-1.98 0.6,-0.84 1.14,-1.26 0.6,-0.42 0.9,-0.42 0.3,0 0.42,0.18 0.12,0.12 0.36,0.12 l 0,41.16 -3,0 q -6.48,-1.38 -12.9,-1.02 -6.42,0.36 -11.52,2.28 -5.1,1.86 -8.28,5.22 -3.18,3.3 -3.18,7.86 0,3.42 2.22,6.06 2.22,2.7 5.82,4.56 3.66,1.86 8.22,2.82 4.56,1.02 9.24,1.02 4.02,0 8.4,-0.42 4.44,-0.36 8.1,-1.38 3.66,-1.02 6.06,-2.82 2.4,-1.74 2.4,-4.56 0,-2.22 -1.26,-3.36 -1.26,-1.14 -2.76,-1.74 -1.44,-0.6 -2.7,-0.96 -1.26,-0.3 -1.26,-0.84 0,-1.98 1.38,-2.76 1.44,-0.72 3.48,-1.26 2.04,-0.54 4.32,-1.32 2.34,-0.84 4.14,-2.88 1.5,-1.68 2.4,-3.66 0.96,-1.98 1.44,-3.84 0.48,-1.86 0.6,-3.36 0.18,-1.56 0.18,-2.34 z m -11.46,28.26 q 0,1.98 -2.52,3.42 -2.46,1.44 -6,2.34 -3.48,0.96 -7.26,1.38 -3.78,0.48 -6.48,0.48 -3.9,0 -8.22,-0.84 -4.26,-0.78 -7.86,-2.34 -3.54,-1.5 -5.88,-3.72 -2.34,-2.22 -2.34,-5.04 0,-2.34 1.02,-3.72 1.02,-1.32 2.64,-2.04 1.62,-0.72 3.6,-1.02 2.04,-0.3 3.96,-0.48 l 27.54,1.98 q -0.18,0.78 -0.24,1.2 -0.06,0.48 -0.18,1.14 l -2.64,0 q -2.4,0 -6,0.12 -3.6,0.12 -7.02,0.66 -3.36,0.6 -5.76,1.74 -2.4,1.2 -2.4,3.36 0,1.92 2.28,3 2.28,1.08 5.82,1.08 3.42,0 6,-1.2 2.64,-1.14 4.62,-2.52 1.98,-1.38 3.42,-2.58 1.5,-1.14 2.58,-1.14 1.32,0 2.64,0.42 1.32,0.42 2.34,1.08 1.08,0.72 1.68,1.56 0.66,0.84 0.66,1.68 z m -24.78,-55.8 q 0,-3.36 -1.14,-5.22 -1.14,-1.92 -1.8,-1.92 -0.18,0 -0.42,0.12 -0.18,0.12 -0.42,0.12 l 0,1.68 q 0.3,0.48 0.66,1.32 0.42,0.84 0.72,1.68 0.3,0.84 0.48,1.5 0.24,0.66 0.24,0.72 0,0.36 -0.36,0.96 -0.3,0.6 -0.84,1.2 -0.48,0.54 -1.08,0.96 -0.54,0.42 -0.9,0.42 -1.62,0 -1.86,-0.9 -0.24,-0.9 -0.72,-2.4 -0.42,-1.14 -0.66,-2.52 -0.24,-1.38 -0.96,-2.52 -0.72,-1.2 -2.22,-1.98 -1.44,-0.78 -4.26,-0.78 -1.26,0 -2.88,0.6 -1.56,0.6 -3,1.62 -1.38,0.96 -2.4,2.22 -0.96,1.2 -0.96,2.52 0,1.86 0.54,3.78 0.6,1.92 2.04,3.54 1.44,1.56 3.96,2.58 2.52,1.02 6.42,1.02 0.42,0 1.2,0.06 0.84,0.06 1.74,0 0.9,-0.12 1.8,-0.42 0.9,-0.36 1.44,-1.14 -1.02,-0.42 -2.04,-0.18 -1.02,0.24 -2.34,0.48 -1.26,0.24 -3,0.24 -1.74,-0.06 -4.26,-1.02 -1.62,-0.6 -2.76,-1.62 -1.14,-1.08 -1.86,-2.28 -0.66,-1.2 -1.02,-2.4 -0.3,-1.26 -0.3,-2.34 0,-0.54 0.36,-1.14 0.36,-0.6 0.9,-1.14 0.54,-0.54 1.08,-0.84 0.6,-0.36 1.02,-0.36 1.62,0 2.1,1.62 0.54,1.56 1.14,3.54 0.6,1.92 1.98,3.54 1.44,1.56 4.86,1.56 2.4,0 4.2,-0.66 1.86,-0.66 3.06,-1.62 1.26,-1.02 1.86,-2.1 0.66,-1.14 0.66,-2.1 z m 3.9,0.78 q -0.24,1.08 -0.6,1.8 -0.3,0.66 -0.3,1.74 l 0,22.38 q 0,0.96 -0.42,2.16 -0.36,1.14 -0.84,1.92 -0.42,0.72 -0.84,0.78 -0.36,0 -0.36,-1.2 l 0,-22.26 q 0,-0.84 0.12,-1.44 0.18,-0.66 0.54,-1.38 0.36,-0.78 1.02,-1.8 0.66,-1.02 1.68,-2.7 z m 10.14,50.16 q -0.66,0.72 -2.28,1.74 -1.56,1.02 -3.54,1.92 -1.98,0.96 -4.08,1.62 -2.1,0.66 -3.78,0.66 -1.26,0 -2.28,-0.42 -1.02,-0.36 -1.02,-0.9 0,-0.9 1.38,-1.8 1.38,-0.9 3.36,-1.62 1.98,-0.66 4.2,-1.08 2.28,-0.42 4.02,-0.42 0.96,0 1.98,0.12 1.08,0.18 2.04,0.18 z m 24.6,-21 q 0,-0.36 -0.24,-1.08 -0.24,-0.72 -0.66,-0.96 0,0.96 -0.24,2.64 -0.18,1.62 -0.72,3.54 -0.54,1.86 -1.5,3.9 -0.96,1.98 -2.52,3.78 -1.86,2.1 -4.32,3.06 -2.4,0.9 -4.5,1.44 -1.62,0.42 -2.82,0.9 -1.2,0.48 -1.32,1.56 0.06,-0.3 1.02,-0.06 0.18,0.06 0.36,0.12 0.24,0.06 0.48,0.12 0.84,-0.84 2.34,-1.26 1.5,-0.42 3.24,-0.9 1.74,-0.42 3.54,-1.2 1.8,-0.78 3.24,-2.4 1.5,-1.68 2.4,-3.66 0.9,-1.98 1.38,-3.84 0.54,-1.86 0.66,-3.36 0.18,-1.5 0.18,-2.34 z m -27.24,1.86 q 1.62,-1.8 1.68,-3.78 0.12,-3.6 0.06,-6.54 0,-3 -0.12,-5.76 -0.06,-2.82 -0.12,-5.76 -0.06,-2.94 -0.06,-6.54 0,-1.44 0.36,-2.58 l 0,-3.6 -0.18,0.18 q -1.08,1.26 -1.08,3.6 0,2.94 0.06,5.4 0.06,2.46 0.12,4.74 0.06,2.1 0.12,4.26 0.06,2.16 0.06,4.44 0,1.38 0,2.82 0,1.44 -0.12,3 -0.18,2.7 -2.22,4.74 -1.98,2.04 -4.62,3.42 1.56,0.12 3.18,0.36 0.78,-0.48 1.5,-1.08 0.72,-0.66 1.38,-1.32 z m 13.14,11.04 q -2.64,1.14 -5.1,1.26 -2.46,0.12 -4.2,0 l -29.76,-1.5 q 0.96,-0.24 1.62,-0.36 0.66,-0.18 1.38,-0.3 0.78,-0.12 1.86,-0.18 1.14,-0.06 2.94,-0.06 3.3,0 6.66,0.36 3.36,0.36 7.08,0.72 3.78,0.3 8.04,0.42 4.32,0.12 9.48,-0.36 z m 0.42,-9.36 q 0.18,-1.32 0.66,-2.76 0.48,-1.5 1.32,-2.94 1.68,-2.88 3.84,-5.16 2.16,-2.28 5.16,-4.92 0,-0.24 -0.24,-0.3 -0.18,-0.12 -0.18,-0.3 l -0.84,0 q -1.44,0.84 -2.76,1.98 -1.26,1.08 -2.4,2.34 -1.08,1.2 -1.98,2.46 -0.9,1.2 -1.56,2.22 -0.78,1.08 -1.2,2.28 -0.36,1.2 -0.66,2.4 -0.24,1.2 -0.48,2.34 -0.18,1.14 -0.6,2.1 l 1.62,0 q 0.12,-0.42 0.18,-0.84 0.06,-0.42 0.12,-0.9 z m -9.12,19.86 0.6,0 q -0.72,0.84 -2.28,1.68 -1.5,0.9 -2.82,1.62 -1.98,1.32 -4.56,2.34 -2.58,1.02 -5.94,1.02 -2.04,0 -3.66,-0.36 0.84,0.78 2.64,1.02 1.86,0.24 3.42,0.24 3.42,0 6,-1.2 2.64,-1.14 4.62,-2.52 1.98,-1.38 3.42,-2.58 1.5,-1.14 2.58,-1.14 1.26,0 1.2,-0.18 -0.06,-0.12 -0.72,-0.3 -0.66,-0.12 -1.56,-0.3 -0.9,-0.12 -1.32,-0.12 -0.6,0 -1.62,0.78 z m -35.22,0.96 0,-0.42 q 0,-2.34 1.02,-3.72 1.02,-1.32 2.64,-2.04 1.62,-0.72 3.6,-1.02 2.04,-0.3 3.96,-0.48 l 11.82,0.84 q 1.26,-0.12 2.58,-0.3 1.32,-0.18 2.52,-0.06 l -19.32,-1.38 q -1.68,0.18 -3.42,0.42 -1.68,0.24 -3.12,0.78 -1.38,0.6 -2.28,1.68 -0.9,1.08 -0.9,2.88 0,1.56 0.9,2.82 z m 8.52,-49.32 q -0.18,0 -0.24,0.12 -0.06,0.12 -0.3,0.12 -1.44,0 -2.28,-1.08 -0.84,-1.14 -1.5,-2.64 -0.66,-1.56 -1.26,-3.18 -0.6,-1.68 -1.5,-2.76 l 2.46,0 q 1.32,1.02 1.62,2.22 0.36,1.2 0.54,2.46 0.18,1.26 0.6,2.52 0.42,1.2 1.86,2.22 z m 29.16,8.64 -0.9,0 0,21.48 q 0,-0.12 0.36,-0.12 0.24,0 0.54,-0.48 l 0,-20.88 z m -14.1,40.92 q 1.5,-0.48 2.88,-1.08 1.38,-0.6 2.64,-1.32 -1.56,0 -3.48,0.3 -1.92,0.3 -3.66,0.78 -1.68,0.48 -2.88,1.08 -1.14,0.6 -1.14,1.2 0.12,-0.12 0.6,-0.12 l 1.2,0 q 1.86,0 3.84,-0.84 z m -5.88,-39.3 0,0.9 q -1.32,0.6 -3,0.3 -1.68,-0.3 -4.38,-0.3 -2.64,0 -4.8,0.6 -2.16,0.54 -3.42,1.26 0.3,-0.18 1.2,-0.66 0.9,-0.48 2.04,-0.9 1.14,-0.48 2.4,-0.84 1.26,-0.36 2.34,-0.36 l 7.62,0 z m 29.16,-12.54 q 0,0.9 -0.24,1.38 -0.18,0.42 -0.54,0.72 -0.3,0.24 -0.72,0.54 -0.42,0.24 -0.84,0.9 0.18,-1.74 0.3,-2.7 0.12,-1.02 0.06,-1.86 0,-0.84 -0.36,-1.74 -0.36,-0.96 -1.14,-2.46 1.5,1.2 2.46,2.4 1.02,1.14 1.02,2.82 z m -9.18,6.06 0,-11.28 0.18,0 q -0.24,0 -0.6,-0.24 -0.3,-0.3 -0.48,-0.42 l 0,12.6 q 0,-0.06 0.36,-0.3 0.42,-0.3 0.54,-0.36 z m -27.72,24.84 q 0.36,0 0.78,0 0.48,-0.06 1.08,-0.12 l 1.2,-0.12 q 0.06,-1.2 0.84,-1.44 0.78,-0.24 1.62,-0.78 l -0.06,-0.06 q -0.06,-0.06 -0.78,0.3 -0.72,0.3 -1.92,0.48 -1.32,0 -2.76,0.42 -1.44,0.42 -2.4,0.42 -1.8,0 -3.54,-0.36 2.58,1.26 5.94,1.26 z m -7.38,-8.52 0,-0.36 q 0,-1.62 1.38,-2.88 1.38,-1.32 2.94,-2.16 -2.52,0.84 -4.2,2.28 -1.68,1.38 -1.68,2.94 0,0.66 1.02,1.5 0.12,-0.72 0.54,-1.32 z m -4.62,-25.8 q -0.3,0.3 -0.3,0.84 0,0.54 0.12,1.14 0.12,0.6 0.36,1.2 0.24,0.6 0.48,1.02 -0.06,-0.36 -0.06,-0.72 0,-0.36 0,-0.66 0,-0.24 0.42,-0.96 0.48,-0.72 0.84,-1.44 0.42,-0.78 0.48,-1.38 0.06,-0.6 -0.78,-0.6 l -0.06,0 q -0.9,0.84 -1.5,1.56 z m 17.58,27.48 1.14,0 q -0.18,-0.66 -0.84,-0.78 -0.6,-0.12 -2.7,-0.12 -0.18,0 -0.54,0 -0.3,0 -0.6,0.06 -0.3,0.06 -0.42,0.12 -0.06,0.06 0.3,0.12 l 0,1.2 q 1.44,-0.6 3.66,-0.6 z m 0.66,-18.54 q 0.36,-0.18 0.42,-0.9 0.12,-0.78 0.24,-1.32 -0.66,0.42 -1.38,0.78 -0.72,0.36 -1.56,0.6 0.42,0.12 0.84,0.3 0.48,0.18 0.96,0.36 l 0.06,0.36 0.42,-0.18 z m -2.52,-8.1 q -0.3,-1.14 -0.78,-2.04 0.06,0.06 0.06,0.18 0,0.66 0.48,1.86 0.54,1.14 0.54,1.86 0,0.3 0.18,0.12 -0.12,-0.48 -0.24,-0.96 -0.12,-0.48 -0.24,-1.02 z m 7.14,-1.5 q 0.12,-0.12 0.18,-0.12 0.06,-0.06 0.18,-0.18 -0.48,-1.02 -0.42,-0.78 0.06,0.18 0.06,1.08 z m -17.46,13.08 q 0.54,-0.18 0,-0.24 -0.48,-0.06 -0.66,-0.12 0.18,0.12 0.66,0.36 z m 13.08,47.94 0.12,0 -0.12,0 z"
         inkscape:connector-curvature="0" />
      <path
         id="path4143"
         style="font-style:normal;font-variant:normal;font-weight:normal;font-stretch:normal;font-family:EmbossedBlackWide;-inkscape-font-specification:EmbossedBlackWide"
         d="m -616.93226,430.76507 11.58,-12.42 q -0.24,-0.12 -0.54,-0.42 -0.3,-0.36 -0.84,-0.36 -0.42,0 -1.38,0.96 -0.9,0.9 -1.92,1.98 -1.02,1.08 -1.98,2.04 -0.9,0.9 -1.26,0.9 -0.84,0 -1.74,-0.78 -0.9,-0.78 -1.62,-1.92 -0.72,-1.14 -1.2,-2.46 -0.42,-1.32 -0.42,-2.4 0,-0.24 0.9,-0.96 0.96,-0.72 2.34,-1.74 1.44,-1.02 3.06,-2.16 1.62,-1.2 3,-2.34 1.44,-1.14 2.34,-2.1 0.96,-0.96 0.96,-1.56 0,-0.48 -1.08,-2.22 -1.02,-1.74 -2.4,-3.6 -1.32,-1.92 -2.58,-3.42 -1.2,-1.5 -1.56,-1.5 -0.18,0 -1.14,0.48 -0.96,0.42 -2.1,1.02 -1.14,0.6 -2.16,1.14 -1.02,0.54 -1.38,0.66 -2.22,1.2 -3.42,1.68 -1.2,0.42 -1.86,0.54 -0.6,0.12 -0.84,0.18 -0.24,0.06 -0.54,0.42 l 0,14.4 q 0,0.18 -0.18,0.36 -0.12,0.12 -0.12,0.36 0,0.3 0.18,2.04 0.18,1.74 0.18,3.18 0,1.14 -0.06,1.38 -0.12,0.42 -0.72,1.14 -0.6,0.72 -1.32,1.5 -0.66,0.72 -1.26,1.32 -0.54,0.6 -0.54,0.78 0,0.3 0.72,0.54 0.72,0.24 1.02,0.3 1.2,-1.32 1.86,-2.16 0.72,-0.84 1.44,-1.32 2.64,1.98 4.14,3.18 1.56,1.2 2.4,1.92 0.84,0.66 1.26,0.96 0.42,0.3 0.78,0.48 z m 0.36,-3.48 q -0.24,0.24 -0.36,0.36 -0.12,0.06 -0.24,0.36 -2.52,-1.98 -4.08,-2.88 -1.5,-0.9 -2.34,-2.04 -0.78,-1.2 -1.02,-3.3 -0.24,-2.16 -0.24,-6.66 0,-0.72 -0.12,-3.48 -0.12,-2.82 0.48,-7.14 0.06,-0.72 1.08,-1.26 0.6,0 0.78,1.32 0.24,1.26 0.3,3.42 0.06,2.1 0,4.92 -0.06,2.76 -0.06,5.7 0,1.44 0,2.94 0.06,1.5 0.3,2.58 0.12,0.6 0.6,1.02 0.48,0.36 1.2,0.84 0.78,0.48 1.74,1.26 0.96,0.72 1.98,2.04 z m 4.32,-18.78 -0.6,0.48 q -0.78,0.6 -2.16,1.68 -1.38,1.08 -2.16,1.8 -0.36,-0.48 -0.54,-0.6 -0.18,-0.12 -0.18,-0.84 l 0,-1.38 q 0,-0.84 0.18,-2.88 0.24,-2.1 0.24,-5.64 0.96,0.78 2.22,2.7 1.26,1.92 3,4.68 z m -3.6,9.78 q 0,-0.24 0.9,-0.96 0.96,-0.72 2.34,-1.74 1.44,-1.02 3.06,-2.16 1.62,-1.2 3,-2.34 1.44,-1.14 2.34,-2.1 0.96,-0.96 0.96,-1.56 0,-0.48 -0.96,-2.04 -0.18,0.84 -0.96,1.8 -0.72,0.9 -1.74,1.8 -1.02,0.9 -2.16,1.74 -1.08,0.84 -1.98,1.5 -0.66,0.48 -1.32,0.9 -0.66,0.42 -1.26,0.9 -2.4,1.56 -2.82,2.58 -0.42,0.96 0.72,3.06 -0.06,-0.36 -0.12,-0.72 0,-0.36 0,-0.66 z m 1.32,14.88 11.58,-12.42 q -0.24,-0.12 -0.54,-0.42 -0.3,-0.36 -0.84,-0.36 -0.42,0 -1.38,0.96 l -10.44,11.16 q 0.48,0.36 0.84,0.6 0.36,0.3 0.78,0.48 z m 4.68,-26.88 q -0.48,0.48 -1.02,0.72 -0.6,-0.78 -1.44,-1.98 -0.84,-1.2 -1.68,-2.46 -0.78,-1.26 -1.44,-2.34 -0.66,-1.14 -0.9,-1.62 l 0.3,-0.54 q 1.32,0.6 2.52,2.46 1.26,1.86 3.66,5.76 z m -16.5,20.88 -0.06,0.06 q -0.3,0.36 -0.84,0.96 -0.48,0.6 -0.9,1.02 l 0,0.06 q 0,0.3 0.72,0.54 0.72,0.24 1.02,0.3 0.78,-0.96 1.26,-1.56 0.48,-0.6 1.14,-1.2 -0.66,-0.6 -1.08,-0.84 -0.42,-0.3 -1.26,0.66 z m 11.22,-20.46 q -0.3,-0.42 -0.54,-0.78 -0.18,-0.36 -0.42,-0.66 -0.06,1.32 -0.18,2.46 -0.12,1.14 -0.12,1.92 l 0,0.24 q 0,-0.06 0.48,-0.36 0.48,-0.36 0.6,-0.42 0.06,-0.48 0.06,-1.08 0.06,-0.66 0.12,-1.32 z"
         inkscape:connector-curvature="0" />
      <path
         id="path4145"
         style="font-style:normal;font-variant:normal;font-weight:normal;font-stretch:normal;font-family:EmbossedBlackWide;-inkscape-font-specification:EmbossedBlackWide"
         d="m -584.27773,421.82507 q 0,-0.42 -0.42,-0.84 l -1.14,0 q -0.66,0.6 -0.96,1.02 -0.3,0.36 -0.78,0.36 -1.08,0 -1.62,-1.08 -0.48,-1.14 -0.66,-2.64 -0.12,-1.56 -0.12,-3.12 0.06,-1.62 0.06,-2.64 0,-2.1 0.06,-4.08 0.06,-1.98 0.12,-3.54 0.06,-1.56 0.06,-2.52 0.06,-1.02 0.06,-1.08 0.18,-0.36 0.6,-0.78 0.48,-0.42 0.9,-0.9 0.48,-0.48 0.78,-1.02 0.36,-0.6 0.3,-1.26 l -1.2,0 q -0.36,0.24 -0.96,0.9 -0.54,0.66 -1.08,0.66 -0.18,0 -1.02,-0.6 -0.78,-0.66 -1.68,-1.44 -0.9,-0.78 -1.68,-1.38 -0.72,-0.6 -0.72,-0.6 -0.48,0.3 -2.58,2.22 -2.1,1.92 -5.34,5.1 0,0.3 0.12,0.54 0.12,0.18 0.18,0.48 l 0.84,0 q 0.54,-0.42 0.96,-0.78 0.48,-0.42 0.9,-0.42 0.78,0 1.14,0.9 0.42,0.9 0.42,0.96 l 0,13.44 q 0,2.88 -0.78,4.68 -0.72,1.8 -1.68,2.82 -0.9,1.02 -1.68,1.44 -0.78,0.36 -0.78,0.48 0,0.18 0.18,0.36 0.18,0.18 0.18,0.36 l 1.56,0 q 0.78,-0.96 1.56,-1.68 0.78,-0.72 1.8,-1.38 2.46,2.22 3.6,3.42 1.14,1.2 2.28,1.2 0.24,0 1.56,-1.02 1.32,-1.08 2.82,-2.4 1.5,-1.32 2.64,-2.52 1.2,-1.26 1.2,-1.62 z m -2.76,-38.94 q 0,-0.06 -0.78,-0.96 -0.78,-0.9 -1.74,-1.86 -0.9,-1.02 -1.74,-1.86 -0.84,-0.84 -1.02,-0.84 -0.3,0 -1.62,0.96 -1.26,0.96 -2.7,2.16 -1.44,1.14 -2.58,2.16 -1.14,0.96 -1.14,1.02 0,0.54 0.36,0.84 0.36,0.3 1.02,0.78 0.66,0.48 1.56,1.38 0.96,0.84 2.04,2.52 1.02,-0.36 2.46,-1.26 1.44,-0.96 2.7,-1.98 1.32,-1.02 2.22,-1.86 0.96,-0.9 0.96,-1.2 z m -4.74,43.14 q 0,0.3 -0.48,0.72 -0.48,0.36 -0.66,0.6 -1.68,-2.04 -2.58,-2.7 -0.9,-0.72 -1.32,-1.5 -0.36,-0.78 -0.42,-2.4 0,-1.68 0,-5.64 l 0,-7.26 q 0,-0.06 0.12,-0.9 0.12,-0.84 0.24,-1.8 0.12,-1.02 0.12,-1.86 0.06,-0.9 -0.06,-1.14 -0.36,-0.48 -0.96,-0.66 -0.6,-0.18 -0.6,-0.84 0,-0.9 0.48,-0.9 0.54,-0.06 1.14,0.36 0.6,0.42 1.08,1.08 0.54,0.6 0.6,0.96 0.18,1.92 0.12,3.48 -0.06,1.56 -0.18,3.12 -0.12,1.5 -0.24,3.12 -0.12,1.56 0,3.48 0.18,3.48 0.06,4.98 -0.12,1.5 -0.06,1.62 0.3,0.6 0.9,1.14 0.6,0.48 1.2,0.96 0.6,0.42 1.02,0.9 0.48,0.48 0.48,1.08 z m 9.9,-1.8 q 0,-0.42 -0.42,-0.84 l -1.14,0 q -0.66,0.6 -0.96,1.02 -0.3,0.36 -0.78,0.36 -1.02,1.02 -2.16,2.04 -1.14,1.02 -2.16,1.86 -0.12,0.24 -0.54,0.6 -0.36,0.3 -0.48,0.48 l -0.12,-0.12 q -1.08,0.42 -1.26,0.78 -0.18,0.42 0.06,0.72 0.3,0.3 0.84,0.48 0.54,0.18 0.9,0.18 0.24,0 1.56,-1.08 1.32,-1.02 2.82,-2.34 1.5,-1.32 2.64,-2.52 1.2,-1.26 1.2,-1.62 z m -5.7,-6.3 q 0.06,-0.78 0.06,-1.44 0,-0.72 0,-1.2 0,-2.1 0.06,-4.08 0.06,-1.98 0.12,-3.54 0.06,-1.56 0.06,-2.52 0.06,-1.02 0.06,-1.08 0.18,-0.36 0.6,-0.78 0.48,-0.42 0.9,-0.9 0.48,-0.48 0.78,-1.02 0.36,-0.6 0.3,-1.26 l -1.2,0 q -0.06,0 -0.42,0.3 -0.3,0.24 -0.72,0.6 -0.36,0.3 -0.72,0.6 -0.36,0.3 -0.42,0.42 l 0,0.12 q 0,1.08 -0.18,4.14 -0.18,3.06 -0.12,6.6 l 0,2.88 0,1.62 q 0,1.2 0.12,2.22 0.12,0.96 0.48,1.2 l 0.12,-0.12 q 0.12,0 0.12,-0.36 0,-0.36 0,-0.78 0,-0.48 0,-0.9 0,-0.48 0,-0.72 z m 2.94,-32.64 q 0,-0.06 -0.54,-0.6 -0.48,-0.54 -0.84,-1.02 -0.12,0.12 -0.9,0.78 -0.78,0.66 -1.74,1.5 -0.96,0.78 -1.74,1.56 -0.72,0.78 -0.72,1.08 0.06,0.36 -0.54,0.36 -0.66,0 -1.26,0.42 -0.54,0.36 -1.14,0.72 0.24,0.3 0.48,0.72 0.3,0.36 0.6,0.78 1.02,-0.36 2.46,-1.26 1.44,-0.96 2.7,-1.98 1.32,-1.02 2.22,-1.86 0.96,-0.9 0.96,-1.2 z m -7.32,-4.92 q 0,0.36 -0.36,0.72 -0.3,0.3 -0.72,0.6 -0.36,0.3 -0.78,0.66 -0.36,0.3 -0.54,0.66 -0.24,0.42 0,1.02 0.24,0.6 0.48,1.2 0.3,0.54 0.36,0.96 0.06,0.36 -0.54,0.36 -0.36,0 -0.9,-0.36 -0.48,-0.42 -0.96,-0.9 -0.48,-0.48 -0.9,-0.9 -0.36,-0.48 -0.6,-0.66 0.66,-0.66 2.1,-2.04 1.5,-1.38 2.4,-2.4 0.36,0.3 0.66,0.48 0.3,0.12 0.3,0.6 z m -6.84,47.22 q -0.9,1.02 -1.68,1.44 -0.78,0.42 -0.78,0.48 0,0.18 0.18,0.36 0.18,0.18 0.18,0.36 l 1.56,0 q 0.9,-1.08 1.56,-1.68 0.78,-0.78 0.18,-1.14 -0.54,-0.42 -1.2,0.18 z m -1.44,-23.28 -0.66,0.66 q 0,0.3 0.12,0.54 0.12,0.18 0.18,0.48 l 0.36,0 0,-1.68 z m 12.54,16.38 0,0.06 0,-0.06 z"
         inkscape:connector-curvature="0" />
      <path
         id="path4147"
         style="font-style:normal;font-variant:normal;font-weight:normal;font-stretch:normal;font-family:EmbossedBlackWide;-inkscape-font-specification:EmbossedBlackWide"
         d="m -547.29851,397.40507 -0.72,-0.24 q -0.9,0.96 -1.44,1.92 -0.48,0.96 -1.8,1.68 -3.66,-2.82 -5.16,-4.14 -1.5,-1.38 -2.28,-1.38 -1.98,0 -3.48,0.12 -1.5,0.06 -3,0.12 -1.44,0.06 -3.18,0.18 -1.74,0.06 -4.2,0.06 -0.96,0.3 -2.7,2.58 -1.74,2.22 -4.2,5.82 0,0.3 0.12,0.48 0.12,0.12 0.24,0.36 l 0.9,0 q 0.06,0 0.42,-0.48 0.42,-0.48 1.08,-0.9 0.54,0.6 1.02,1.62 0.54,1.02 0.54,1.62 l 0,30.48 q 0,0.84 -0.12,1.14 -0.12,0.3 -0.48,0.54 -0.3,0.3 -0.9,0.84 -0.6,0.6 -1.56,1.98 2.34,1.44 3.72,2.52 1.38,1.14 2.22,1.92 0.84,0.78 1.44,1.26 0.6,0.48 1.44,0.66 1.02,-1.86 2.16,-3.12 1.14,-1.26 2.16,-2.1 1.02,-0.78 1.86,-1.32 0.84,-0.48 1.26,-0.84 -1.62,-1.38 -2.52,-1.98 -0.9,-0.6 -1.38,-1.5 -0.48,-0.84 -0.6,-2.52 -0.12,-1.68 -0.12,-5.16 0,-1.26 -0.06,-1.98 0,-0.72 0,-1.2 0,-0.78 0.6,-1.8 2.04,1.5 3.18,3.12 1.2,1.62 3.06,3.84 1.02,-0.54 2.64,-1.92 1.68,-1.32 3.24,-2.82 1.62,-1.56 2.76,-2.94 1.14,-1.38 1.14,-1.98 l 0,-15.54 q 0,-2.58 0.3,-3.96 0.36,-1.44 0.78,-2.22 0.48,-0.84 0.9,-1.38 0.48,-0.54 0.72,-1.44 z m -12.24,8.1 0,12.42 q 0,1.5 -0.36,2.34 -0.36,0.84 -0.9,1.38 -0.54,0.54 -1.2,0.96 -0.66,0.42 -1.26,1.02 -1.14,-0.6 -1.8,-1.2 -0.6,-0.66 -0.9,-1.74 -0.3,-1.08 -0.36,-2.7 0,-1.68 0,-4.32 l 0,-5.16 q 0,-0.6 0.36,-1.14 0.42,-0.6 0.96,-1.2 0.6,-0.6 1.2,-1.26 0.66,-0.72 1.2,-1.62 1.02,0.54 1.5,1.14 0.54,0.6 1.56,1.08 z m -9.6,38.94 q 0,1.38 -0.78,1.2 -0.78,-0.18 -1.86,-0.96 -1.08,-0.78 -2.22,-1.74 -1.14,-0.96 -1.86,-1.14 1.2,-1.5 1.74,-2.76 0.6,-1.2 0.78,-2.46 0.18,-1.2 0.12,-2.58 -0.06,-1.38 -0.06,-3.06 0,-3.72 0.12,-6.72 0.12,-3 0.18,-5.88 0.12,-2.88 0.12,-5.88 0.06,-3.06 -0.12,-6.78 -0.06,-0.84 -0.42,-1.44 -0.36,-0.66 -0.78,-1.08 -0.42,-0.48 -0.78,-0.78 -0.36,-0.3 -0.36,-0.48 0,-0.84 0.54,-0.9 0.54,-0.12 1.2,0.24 0.66,0.36 1.2,1.08 0.6,0.72 0.6,1.5 0.18,4.38 0.06,7.98 -0.06,3.54 -0.24,6.96 -0.12,3.42 -0.24,7.02 -0.06,3.54 0.12,7.92 0,0.36 0.12,0.72 0.12,0.42 0.18,1.02 0.12,0.66 0.06,1.56 -0.06,0.96 -0.36,2.4 -0.42,1.86 0,2.52 0.42,0.66 1.08,0.84 0.66,0.24 1.26,0.42 0.6,0.24 0.6,1.26 z m 24.24,-44.64 -0.72,-0.24 q -0.96,1.08 -1.44,1.92 -0.36,0.78 -0.66,1.2 -0.24,0.42 -0.42,0.9 -0.18,0.42 -0.3,1.08 -0.06,0.6 -0.06,1.74 l 0,15.54 q 0,0.66 -1.08,2.04 -1.02,1.32 -2.58,2.88 -1.5,1.56 -3.3,3.06 -1.74,1.56 -3.12,2.58 0.24,0.36 0.54,0.72 0.36,0.36 0.66,0.78 1.02,-0.54 2.64,-1.92 1.68,-1.32 3.24,-2.82 1.62,-1.56 2.76,-2.94 1.14,-1.38 1.14,-1.98 l 0,-15.54 q 0,-2.58 0.3,-3.96 0.36,-1.44 0.78,-2.22 0.48,-0.84 0.9,-1.38 0.48,-0.54 0.72,-1.44 z m -10.56,5.34 0,10.92 q 0,2.58 -0.48,4.14 -0.42,1.56 -1.14,2.64 -0.72,1.02 -1.68,1.8 -0.96,0.78 -1.98,1.74 -0.3,-0.18 -0.6,-0.36 -0.3,-0.24 -0.6,-0.54 1.68,-1.32 2.64,-2.94 1.02,-1.68 1.44,-3.9 0.48,-2.22 0.6,-5.16 0.12,-3 0.12,-6.96 0,-0.78 -0.84,-2.4 -0.84,-1.62 -3.12,-2.64 l 1.32,-1.02 q 2.82,2.34 3.54,3.24 0.78,0.84 0.78,1.44 z m -13.14,44.64 0.18,0.12 q 0.72,0.48 1.44,0.66 1.02,-1.86 2.16,-3.12 1.14,-1.26 2.16,-2.1 1.02,-0.78 1.86,-1.32 0.84,-0.48 1.26,-0.84 -0.84,-0.72 -1.44,-1.26 -0.42,0.36 -1.32,0.96 -0.9,0.6 -2.04,1.5 -1.08,0.9 -2.22,2.22 -1.14,1.32 -2.04,3.18 z m 4.68,-29.4 0,-9.48 q 0,-1.14 1.02,-2.04 1.08,-0.9 1.86,-1.86 l 0,-0.6 q -0.36,-0.24 -0.6,-0.42 -0.24,-0.24 -0.54,-0.48 -0.54,0.78 -1.62,1.62 -1.02,0.84 -1.02,1.38 l 0,5.16 q 0,3.54 0.12,5.22 0.12,1.68 0.84,2.52 -0.06,-0.3 -0.06,-1.02 z m -0.24,11.64 q 0,-1.26 -0.06,-1.98 0,-0.72 0,-1.2 l 0,-0.42 q 0,-0.24 -0.42,-0.54 -0.36,-0.3 -0.48,-0.48 l 0,0.24 q 0,0.36 0,0.84 0.06,0.48 0.06,1.14 0,2.04 0,3.3 0.06,1.32 0.18,2.1 0.12,0.84 0.3,1.26 0.18,0.48 0.54,0.84 -0.06,-0.84 -0.12,-2.16 0,-1.26 0,-2.94 z m -12.66,-25.86 -0.24,0.36 q 0,0.3 0.12,0.48 0.12,0.12 0.24,0.36 l 0.06,0 0,-0.54 q 0,-0.24 -0.18,-0.66 z"
         inkscape:connector-curvature="0" />
      <path
         id="path4149"
         style="font-style:normal;font-variant:normal;font-weight:normal;font-stretch:normal;font-family:EmbossedBlackWide;-inkscape-font-specification:EmbossedBlackWide"
         d="m -514.88445,416.12507 q 0,-0.48 -0.42,-0.54 -0.36,-0.12 -0.72,-0.3 -1.56,1.86 -2.04,2.94 -0.42,1.02 -1.2,1.02 -0.54,0 -2.76,-0.9 -2.16,-0.96 -5.76,-0.96 -2.88,0 -4.98,0.66 -2.1,0.66 -3.18,1.14 0.48,-0.96 2.64,-2.7 2.22,-1.74 5.52,-4.32 0.48,-0.12 1.92,0 1.44,0.12 2.94,0.06 1.56,-0.06 2.76,-0.48 1.2,-0.48 1.2,-1.74 0,-0.3 -0.36,-0.3 -0.48,-0.06 -1.74,0.18 -1.26,0.18 -3.3,-0.24 0.24,-0.54 1.68,-2.16 1.44,-1.62 3.06,-3.6 1.62,-1.98 2.88,-3.9 1.32,-1.98 1.32,-3.24 0,-0.12 -0.06,-0.66 -0.06,-0.54 -0.3,-1.14 -0.24,-0.6 -0.72,-1.02 -0.48,-0.48 -1.26,-0.48 -0.9,0 -1.5,0.84 -0.54,0.78 -0.54,1.2 0,0 0.24,0.78 0.24,0.72 0.12,1.62 -0.12,0.84 -0.9,1.56 -0.72,0.72 -2.7,0.72 -1.86,0 -3.42,-0.78 -1.56,-0.84 -2.88,-1.92 -1.26,-1.14 -2.22,-2.34 -0.9,-1.26 -1.5,-2.1 l -0.9,0 q -0.72,2.64 -1.74,4.5 -0.96,1.86 -1.86,3.18 -0.9,1.32 -1.56,2.22 -0.6,0.84 -0.6,1.56 0,0.54 0.36,0.72 0.42,0.18 1.08,0.42 0.6,-0.66 0.72,-1.14 0.18,-0.54 0.3,-1.02 1.56,0.24 3.24,0.72 1.68,0.42 3.66,0.96 2.76,0 4.44,-0.48 1.68,-0.54 1.98,-0.54 0.12,0 0.18,0.18 0.06,0.18 0.36,0.18 -2.88,3.42 -4.8,4.38 -1.86,0.9 -3.3,1.02 -1.44,0.06 -2.7,0.12 -1.26,0.06 -2.76,1.74 l 0,0.84 q 0.78,-0.06 1.8,-0.12 1.02,-0.06 2.58,0.24 -0.24,0.3 -1.8,1.74 -1.56,1.38 -3.36,3.36 -1.8,1.98 -3.3,4.38 -1.5,2.34 -1.5,4.62 0,1.74 1.02,3 1.02,1.26 3.48,1.26 2.1,0 3.24,-1.14 1.2,-1.14 1.2,-2.64 0,-2.52 -2.04,-2.52 -0.18,0 -0.78,0.3 l 0,0.66 q 0.6,0.54 1.62,1.98 0,0.6 -1.2,1.2 -1.2,0.6 -2.04,0.6 -1.56,0 -2.34,-1.02 -0.72,-1.08 -0.72,-1.68 0,-0.96 0.66,-1.98 0.66,-1.02 1.68,-1.8 1.02,-0.84 2.1,-1.32 1.08,-0.54 1.86,-0.54 1.98,0 3.78,1.44 1.86,1.38 3.36,3.06 1.5,1.68 2.58,3.12 1.14,1.38 1.74,1.38 0.72,0 1.44,-0.9 0.78,-0.96 1.44,-2.1 0.66,-1.2 1.08,-2.22 0.42,-1.08 0.48,-1.32 0.72,-1.92 1.44,-3.18 0.72,-1.26 1.26,-2.1 0.6,-0.84 0.96,-1.32 0.36,-0.54 0.36,-0.9 z m 2.4,2.4 q 0,-1.02 -0.48,-0.84 -0.48,0.18 -1.08,0.84 -0.6,0.6 -1.14,1.32 -0.48,0.72 -0.48,0.78 -0.36,0.96 -0.9,1.68 -0.54,0.72 -0.96,1.86 l 0.06,-0.12 q -0.12,0.24 -0.54,1.26 -0.42,1.02 -1.14,2.28 -0.66,1.2 -1.56,2.28 -0.84,1.14 -1.74,1.56 0.96,1.14 1.5,1.14 0.72,0 1.44,-0.96 0.78,-0.9 1.44,-2.1 0.66,-1.14 1.08,-2.16 0.42,-1.08 0.48,-1.32 0.72,-1.92 1.44,-3.18 0.72,-1.26 1.26,-2.1 0.6,-0.84 0.96,-1.32 0.36,-0.54 0.36,-0.9 z m -4.74,-12.24 q 1.62,-1.98 2.88,-3.9 1.32,-1.98 1.32,-3.24 0,-0.36 -0.24,-1.2 -0.24,-0.84 -0.66,-1.5 l 0,0.3 q 0,1.08 -0.72,2.46 -0.66,1.32 -1.68,2.82 -1.02,1.44 -2.22,2.88 -1.2,1.44 -2.22,2.64 -0.78,0.78 -0.54,0.84 0.24,0 1.02,-0.12 l -0.12,0.06 q 0.36,-0.12 0.54,-0.12 l 0.42,0 q 0.48,0 0.6,0.06 l 1.62,-1.98 z m -8.16,8.28 q 0.48,-0.12 1.92,0 1.44,0.12 2.94,0.06 1.56,-0.06 2.76,-0.48 1.2,-0.48 1.2,-1.74 0,-0.3 -0.36,-0.3 -0.12,0 -0.6,0.06 -0.48,0 -0.72,0.12 -0.84,0.96 -2.4,1.2 -1.5,0.24 -3.06,0.24 l -1.26,0 q -0.54,0 -1.08,-0.06 -0.54,-0.06 -1.02,-0.06 l -0.12,0 q -0.3,0 -0.78,0.36 -0.48,0.36 -1.02,0.78 -0.48,0.42 -0.9,0.84 -0.36,0.36 -0.48,0.48 1.14,-0.18 2.58,-0.18 l 0.72,0 q 0.42,-0.3 0.78,-0.6 0.42,-0.36 0.9,-0.72 z m 1.26,-11.76 q -1.26,0.24 -1.92,0.42 -0.6,0.18 -1.08,0.3 -0.42,0.06 -0.96,0.12 -0.48,0.06 -1.5,0.06 -0.24,0 -1.26,-0.18 -0.96,-0.18 -2.04,-0.48 -1.08,-0.3 -1.92,-0.66 -0.78,-0.36 -0.78,-0.72 0,-0.12 0.36,-0.54 0.36,-0.42 0.96,-1.68 1.62,1.5 3,2.22 1.38,0.72 2.58,1.02 1.2,0.24 2.28,0.18 1.14,-0.06 2.28,-0.06 z m 1.56,21.84 q 0,0.78 -0.48,1.2 -0.42,0.36 -0.78,1.14 -0.6,-0.54 -0.9,-0.96 -0.3,-0.42 -0.9,-1.02 -0.54,-0.6 -1.62,-1.5 -1.08,-0.96 -3.24,-2.52 0.3,-0.06 0.42,-0.12 0.18,-0.12 0.3,-0.12 0.12,0 1.26,0.48 1.14,0.48 2.46,1.14 1.32,0.6 2.4,1.26 1.08,0.66 1.08,1.02 z m -13.08,8.82 q 2.1,0 3.24,-1.14 1.2,-1.14 1.2,-2.64 0,-1.68 -0.9,-2.22 -0.06,1.2 -0.6,2.22 l 0.3,0.42 q 0.24,0.24 -0.36,0.66 -0.6,0.42 -1.56,0.84 -0.96,0.42 -2.04,0.66 -1.02,0.3 -1.68,0.3 -0.66,0 -0.6,0.12 0.12,0.18 0.6,0.3 0.48,0.18 1.14,0.3 0.72,0.18 1.26,0.18 z m -1.32,-25.86 q 0.66,0.3 1.02,0.18 0.42,-0.18 0.6,-0.48 0.24,-0.36 0.3,-0.78 0.12,-0.42 0.18,-0.66 1.38,0.24 3.06,0.72 1.68,0.42 3.18,0.84 0.66,-0.36 1.32,-0.96 -2.28,0.3 -4.56,-0.24 -2.22,-0.54 -4.44,-1.02 -0.18,0.42 -0.48,0.78 -0.24,0.36 -0.54,0.78 l 0,0.12 q 0,0.54 0.36,0.72 z m -1.08,19.62 0.42,-0.6 q -0.06,0.06 -0.24,-0.12 -0.12,-0.18 -0.06,-0.12 l 0,-2.22 q 0.84,-0.42 1.38,-0.66 0.54,-0.24 0.9,-0.24 1.02,0 1.68,0.18 0.66,0.12 1.56,0.12 l 0.18,0 q -0.66,0 -1.32,-0.42 -0.66,-0.48 -1.26,-0.48 -0.96,0 -2.34,0.84 -1.32,0.84 -2.04,1.92 l -0.18,0.36 q -0.24,0.42 -0.24,1.02 0,0.24 0.24,0.66 0.24,0.42 0.9,0.54 0.24,-0.48 0.42,-0.78 z"
         inkscape:connector-curvature="0" />
      <path
         id="path4151"
         style="font-style:normal;font-variant:normal;font-weight:normal;font-stretch:normal;font-family:EmbossedBlackWide;-inkscape-font-specification:EmbossedBlackWide"
         d="m -492.34413,421.82507 q 0,-0.42 -0.42,-0.84 l -1.14,0 q -0.66,0.6 -0.96,1.02 -0.3,0.36 -0.78,0.36 -1.08,0 -1.62,-1.08 -0.48,-1.14 -0.66,-2.64 -0.12,-1.56 -0.12,-3.12 0.06,-1.62 0.06,-2.64 0,-2.1 0.06,-4.08 0.06,-1.98 0.12,-3.54 0.06,-1.56 0.06,-2.52 0.06,-1.02 0.06,-1.08 0.18,-0.36 0.6,-0.78 0.48,-0.42 0.9,-0.9 0.48,-0.48 0.78,-1.02 0.36,-0.6 0.3,-1.26 l -1.2,0 q -0.36,0.24 -0.96,0.9 -0.54,0.66 -1.08,0.66 -0.18,0 -1.02,-0.6 -0.78,-0.66 -1.68,-1.44 -0.9,-0.78 -1.68,-1.38 -0.72,-0.6 -0.72,-0.6 -0.48,0.3 -2.58,2.22 -2.1,1.92 -5.34,5.1 0,0.3 0.12,0.54 0.12,0.18 0.18,0.48 l 0.84,0 q 0.54,-0.42 0.96,-0.78 0.48,-0.42 0.9,-0.42 0.78,0 1.14,0.9 0.42,0.9 0.42,0.96 l 0,13.44 q 0,2.88 -0.78,4.68 -0.72,1.8 -1.68,2.82 -0.9,1.02 -1.68,1.44 -0.78,0.36 -0.78,0.48 0,0.18 0.18,0.36 0.18,0.18 0.18,0.36 l 1.56,0 q 0.78,-0.96 1.56,-1.68 0.78,-0.72 1.8,-1.38 2.46,2.22 3.6,3.42 1.14,1.2 2.28,1.2 0.24,0 1.56,-1.02 1.32,-1.08 2.82,-2.4 1.5,-1.32 2.64,-2.52 1.2,-1.26 1.2,-1.62 z m -2.76,-38.94 q 0,-0.06 -0.78,-0.96 -0.78,-0.9 -1.74,-1.86 -0.9,-1.02 -1.74,-1.86 -0.84,-0.84 -1.02,-0.84 -0.3,0 -1.62,0.96 -1.26,0.96 -2.7,2.16 -1.44,1.14 -2.58,2.16 -1.14,0.96 -1.14,1.02 0,0.54 0.36,0.84 0.36,0.3 1.02,0.78 0.66,0.48 1.56,1.38 0.96,0.84 2.04,2.52 1.02,-0.36 2.46,-1.26 1.44,-0.96 2.7,-1.98 1.32,-1.02 2.22,-1.86 0.96,-0.9 0.96,-1.2 z m -4.74,43.14 q 0,0.3 -0.48,0.72 -0.48,0.36 -0.66,0.6 -1.68,-2.04 -2.58,-2.7 -0.9,-0.72 -1.32,-1.5 -0.36,-0.78 -0.42,-2.4 0,-1.68 0,-5.64 l 0,-7.26 q 0,-0.06 0.12,-0.9 0.12,-0.84 0.24,-1.8 0.12,-1.02 0.12,-1.86 0.06,-0.9 -0.06,-1.14 -0.36,-0.48 -0.96,-0.66 -0.6,-0.18 -0.6,-0.84 0,-0.9 0.48,-0.9 0.54,-0.06 1.14,0.36 0.6,0.42 1.08,1.08 0.54,0.6 0.6,0.96 0.18,1.92 0.12,3.48 -0.06,1.56 -0.18,3.12 -0.12,1.5 -0.24,3.12 -0.12,1.56 0,3.48 0.18,3.48 0.06,4.98 -0.12,1.5 -0.06,1.62 0.3,0.6 0.9,1.14 0.6,0.48 1.2,0.96 0.6,0.42 1.02,0.9 0.48,0.48 0.48,1.08 z m 9.9,-1.8 q 0,-0.42 -0.42,-0.84 l -1.14,0 q -0.66,0.6 -0.96,1.02 -0.3,0.36 -0.78,0.36 -1.02,1.02 -2.16,2.04 -1.14,1.02 -2.16,1.86 -0.12,0.24 -0.54,0.6 -0.36,0.3 -0.48,0.48 l -0.12,-0.12 q -1.08,0.42 -1.26,0.78 -0.18,0.42 0.06,0.72 0.3,0.3 0.84,0.48 0.54,0.18 0.9,0.18 0.24,0 1.56,-1.08 1.32,-1.02 2.82,-2.34 1.5,-1.32 2.64,-2.52 1.2,-1.26 1.2,-1.62 z m -5.7,-6.3 q 0.06,-0.78 0.06,-1.44 0,-0.72 0,-1.2 0,-2.1 0.06,-4.08 0.06,-1.98 0.12,-3.54 0.06,-1.56 0.06,-2.52 0.06,-1.02 0.06,-1.08 0.18,-0.36 0.6,-0.78 0.48,-0.42 0.9,-0.9 0.48,-0.48 0.78,-1.02 0.36,-0.6 0.3,-1.26 l -1.2,0 q -0.06,0 -0.42,0.3 -0.3,0.24 -0.72,0.6 -0.36,0.3 -0.72,0.6 -0.36,0.3 -0.42,0.42 l 0,0.12 q 0,1.08 -0.18,4.14 -0.18,3.06 -0.12,6.6 l 0,2.88 0,1.62 q 0,1.2 0.12,2.22 0.12,0.96 0.48,1.2 l 0.12,-0.12 q 0.12,0 0.12,-0.36 0,-0.36 0,-0.78 0,-0.48 0,-0.9 0,-0.48 0,-0.72 z m 2.94,-32.64 q 0,-0.06 -0.54,-0.6 -0.48,-0.54 -0.84,-1.02 -0.12,0.12 -0.9,0.78 -0.78,0.66 -1.74,1.5 -0.96,0.78 -1.74,1.56 -0.72,0.78 -0.72,1.08 0.06,0.36 -0.54,0.36 -0.66,0 -1.26,0.42 -0.54,0.36 -1.14,0.72 0.24,0.3 0.48,0.72 0.3,0.36 0.6,0.78 1.02,-0.36 2.46,-1.26 1.44,-0.96 2.7,-1.98 1.32,-1.02 2.22,-1.86 0.96,-0.9 0.96,-1.2 z m -7.32,-4.92 q 0,0.36 -0.36,0.72 -0.3,0.3 -0.72,0.6 -0.36,0.3 -0.78,0.66 -0.36,0.3 -0.54,0.66 -0.24,0.42 0,1.02 0.24,0.6 0.48,1.2 0.3,0.54 0.36,0.96 0.06,0.36 -0.54,0.36 -0.36,0 -0.9,-0.36 -0.48,-0.42 -0.96,-0.9 -0.48,-0.48 -0.9,-0.9 -0.36,-0.48 -0.6,-0.66 0.66,-0.66 2.1,-2.04 1.5,-1.38 2.4,-2.4 0.36,0.3 0.66,0.48 0.3,0.12 0.3,0.6 z m -6.84,47.22 q -0.9,1.02 -1.68,1.44 -0.78,0.42 -0.78,0.48 0,0.18 0.18,0.36 0.18,0.18 0.18,0.36 l 1.56,0 q 0.9,-1.08 1.56,-1.68 0.78,-0.78 0.18,-1.14 -0.54,-0.42 -1.2,0.18 z m -1.44,-23.28 -0.66,0.66 q 0,0.3 0.12,0.54 0.12,0.18 0.18,0.48 l 0.36,0 0,-1.68 z m 12.54,16.38 0,0.06 0,-0.06 z"
         inkscape:connector-curvature="0" />
      <path
         id="path4153"
         style="font-style:normal;font-variant:normal;font-weight:normal;font-stretch:normal;font-family:EmbossedBlackWide;-inkscape-font-specification:EmbossedBlackWide"
         d="m -459.08585,397.10507 q 0,-0.12 -0.3,-0.3 -0.24,-0.18 -0.54,-0.54 -1.5,2.04 -2.04,2.64 -0.54,0.6 -1.14,0.6 -0.24,0 -1.68,-0.84 -1.38,-0.9 -3.06,-1.98 -1.68,-1.08 -3.18,-1.98 -1.44,-0.96 -1.86,-1.08 -1.32,1.98 -3.42,3.3 -2.04,1.26 -4.08,2.1 -1.98,0.78 -3.54,1.2 -1.56,0.36 -1.8,0.54 l 0,20.04 q 0,2.16 -0.66,3.42 -0.66,1.2 -1.44,2.04 -0.78,0.78 -1.5,1.32 -0.66,0.48 -0.66,1.2 0,0.9 0.66,0.6 0.66,-0.3 1.5,-1.08 0.9,-0.78 1.74,-1.68 0.9,-0.96 1.38,-1.32 1.56,1.26 2.46,2.16 0.96,0.84 1.5,1.38 0.6,0.54 0.96,0.78 0.36,0.3 0.72,0.3 0.9,0 1.68,-0.6 0.84,-0.66 1.68,-1.62 0.9,-0.96 1.86,-2.04 1.02,-1.14 2.28,-2.04 0.3,1.02 0.24,1.68 -0.06,0.6 -0.18,1.2 -0.12,0.6 -0.18,1.26 0,0.66 0.36,1.74 0.42,1.26 1.44,2.46 1.02,1.26 2.04,2.52 1.02,1.32 1.8,2.7 0.84,1.44 0.84,3 0,2.04 -1.5,3.42 -1.5,1.38 -4.38,1.38 -1.74,0 -2.64,-0.84 -0.84,-0.84 -0.84,-1.68 0,-0.96 0.6,-1.5 0.66,-0.48 1.44,-0.84 0.78,-0.3 1.38,-0.6 0.66,-0.3 0.66,-0.84 0,-0.12 -1.08,-1.26 -1.08,-1.08 -2.46,-2.34 -1.32,-1.26 -2.58,-2.34 -1.26,-1.08 -1.5,-1.14 -0.6,0.9 -1.14,1.92 -0.48,1.02 -1.26,2.04 -0.72,1.08 -1.92,1.98 -1.2,0.96 -3.3,1.62 l 0,1.2 q 2.64,0.12 3.96,1.2 1.32,1.08 2.46,2.28 1.14,1.26 2.64,2.28 1.5,1.02 4.56,1.02 2.1,0 4.26,-1.02 2.22,-0.96 3.96,-2.58 1.74,-1.62 2.82,-3.72 1.14,-2.1 1.14,-4.32 0,-1.68 -0.42,-3.42 -0.36,-1.68 -0.72,-2.64 -0.36,-0.96 -0.42,-1.08 l 0,-27.6 q 0,-0.66 0.36,-1.14 0.42,-0.54 0.84,-0.96 0.42,-0.48 0.78,-0.84 0.42,-0.36 0.42,-0.72 z m -12.24,6.72 0,16.02 q 0,0.36 -0.36,0.72 -0.3,0.36 -0.72,0.78 -0.42,0.36 -0.84,0.72 -0.36,0.3 -0.48,0.54 -1.74,-0.6 -2.22,-1.26 -0.42,-0.72 -0.42,-1.56 0.06,-0.84 0.18,-1.8 0.18,-0.96 -0.36,-2.16 l 0,-15.54 0.6,0 q 0.24,0 0.96,0.48 0.78,0.42 1.56,1.02 0.84,0.54 1.44,1.14 0.66,0.6 0.66,0.9 z m 14.64,-4.32 q 0,-0.84 -0.48,-0.6 -0.48,0.24 -1.08,0.84 -0.54,0.54 -0.96,1.14 -0.42,0.54 -0.36,0.42 l -0.42,0.42 0,26.46 q 0,0.18 0.24,0.9 0.24,0.72 0.54,1.74 0.3,1.08 0.54,2.28 0.24,1.26 0.24,2.4 0,2.76 -1.5,5.34 -1.5,2.58 -3.78,4.44 -0.54,0.72 -1.56,1.32 -0.96,0.66 -2.16,1.08 -1.2,0.42 -2.46,0.66 -1.2,0.3 -2.22,0.3 -1.26,0 -2.22,-0.18 l 0.06,0.06 q 1.56,1.02 4.56,1.02 2.1,0 4.26,-1.02 2.22,-0.96 3.96,-2.58 1.74,-1.62 2.82,-3.72 1.14,-2.1 1.14,-4.32 0,-1.68 -0.42,-3.42 -0.36,-1.68 -0.72,-2.64 -0.36,-0.96 -0.42,-1.08 l 0,-27.6 q 0,-0.66 0.36,-1.14 0.42,-0.54 0.84,-0.96 0.42,-0.48 0.78,-0.84 0.42,-0.36 0.42,-0.72 z m -9.42,33.3 q -0.72,-1.02 -1.38,-1.68 -0.66,-0.66 -1.14,-1.32 -0.42,-0.66 -0.66,-1.56 -0.24,-0.96 -0.18,-2.52 0.18,-3.42 0.24,-6.18 0.06,-2.76 0.12,-5.4 0.06,-2.7 0.06,-5.46 0.06,-2.82 0.12,-6.24 -0.6,-0.72 -1.56,-1.38 -0.9,-0.72 -1.8,-1.26 -0.9,-0.54 -1.56,-0.9 -0.66,-0.36 -0.66,-0.54 0,-0.12 0.18,-0.24 0.18,-0.12 0.3,-0.42 1.08,0.48 2.22,1.14 1.14,0.6 2.04,1.38 0.96,0.72 1.56,1.62 0.66,0.84 0.66,1.74 l 0,23.34 q 0,1.56 0.36,2.94 0.42,1.44 1.08,2.94 z m -12,-5.64 q -0.18,0.36 -1.08,-0.12 -0.9,-0.54 -1.98,-1.32 -1.02,-0.84 -1.86,-1.74 -0.84,-0.9 -0.84,-1.38 l 0,-16.44 q 0,-2.52 0.36,-3.18 0.42,-0.66 1.2,-1.08 l 0,6.84 q 0,1.56 0.06,3.18 0.06,1.62 0.24,3.66 0.18,1.92 0.12,3.18 0,1.2 -0.12,1.98 -0.06,0.78 -0.12,1.2 -0.06,0.36 0.12,0.66 0.18,0.3 0.66,0.72 0.54,0.42 1.14,1.02 0.66,0.54 1.2,1.26 0.6,0.66 0.9,1.56 z m 1.86,16.98 q -0.78,-0.48 -1.2,-1.02 -0.42,-0.48 -0.96,-1.08 -0.48,-0.54 -1.38,-1.2 -0.84,-0.66 -2.52,-1.44 1.08,-0.72 1.68,-1.32 0.66,-0.54 1.08,-1.08 0.48,-0.54 0.84,-1.14 0.36,-0.6 0.9,-1.38 0.42,0.36 0.84,0.6 0.42,0.3 0.42,0.72 0,0.36 -0.36,0.72 -0.36,0.36 -0.84,0.72 -0.48,0.36 -0.84,0.72 -0.36,0.36 -0.36,0.72 0,0.54 0.3,0.96 0.3,0.48 0.66,0.78 0.42,0.36 0.78,0.54 0.36,0.18 0.42,0.3 0.48,0.9 0.24,1.5 -0.18,0.6 0.3,1.38 z m 2.46,-23.58 0,-0.18 q 0.18,-0.96 -0.36,-2.16 l 0,-15.36 q -0.24,-0.12 -0.48,-0.24 -0.18,-0.12 -0.42,-0.24 l 0,13.14 q 0.42,1.02 0.42,2.22 0,0.66 -0.12,1.08 -0.06,0.36 -0.06,0.84 l 0,0.3 q 0,0.3 0.18,0.54 0.24,0.24 0.84,0.06 z m -1.2,11.1 q 0.42,-0.3 0.84,-0.72 0.42,-0.36 0.84,-0.84 0.48,-0.48 0.3,-1.2 -0.18,-0.72 -0.18,-1.26 l 0,-0.48 q 0,0.24 -0.54,0.78 -0.48,0.54 -1.2,1.14 -0.66,0.6 -1.32,1.14 -0.66,0.54 -0.96,0.72 0.3,0.3 0.66,0.6 0.36,0.3 0.78,0.6 0.3,-0.12 0.78,-0.48 z m 3.36,11.76 0.12,-0.06 q 0.6,-0.54 1.38,-0.84 0.84,-0.24 1.32,-0.54 0.48,-0.24 0.48,-0.72 0.06,-0.48 -0.84,-1.44 l -0.06,-0.06 q 0.06,0.06 -0.54,0.42 -0.6,0.42 -1.32,0.9 -0.72,0.48 -1.38,0.84 -0.6,0.42 -0.6,0.54 0,0.78 1.44,0.96 z m -13.8,-14.76 q -0.78,0.78 -1.5,1.26 -0.66,0.54 -0.66,1.26 0,0.9 0.6,0.6 0.6,-0.24 1.38,-0.9 0.78,-0.66 1.44,-1.44 0.72,-0.78 0.9,-0.96 -0.24,-0.24 -0.54,-0.48 -0.3,-0.3 -0.66,-0.6 -0.24,0.36 -0.48,0.72 -0.24,0.3 -0.48,0.54 z m 2.1,14.1 0.42,0 q -0.12,-0.06 -0.24,-0.12 -0.06,0 -0.18,-0.06 l 0,0.18 z"
         inkscape:connector-curvature="0" />
      <path
         id="path4155"
         style="font-style:normal;font-variant:normal;font-weight:normal;font-stretch:normal;font-family:EmbossedBlackWide;-inkscape-font-specification:EmbossedBlackWide"
         d="m -443.52148,426.32507 q 0,-0.24 -0.96,-1.14 -0.96,-0.96 -2.16,-1.98 -1.14,-1.02 -2.22,-1.86 -1.02,-0.84 -1.2,-0.96 -1.14,1.32 -2.58,2.88 -1.44,1.5 -3.36,3.42 0,0.24 0.84,1.08 0.84,0.78 1.92,1.74 1.08,0.9 2.1,1.68 1.02,0.84 1.5,1.08 2.64,-1.92 4.38,-3.66 1.74,-1.8 1.74,-2.28 z m 2.4,2.4 q 0,-1.26 -0.6,-1.14 -0.54,0.12 -1.62,1.02 -1.02,0.9 -2.46,2.28 -1.38,1.38 -3.06,2.64 l 0.12,0.06 q 0.48,0.42 0.84,0.66 0.42,0.3 0.66,0.42 2.64,-1.92 4.38,-3.72 1.74,-1.74 1.74,-2.22 z m -7.62,0.3 -0.24,0.24 q -0.3,0.3 -0.78,0.12 -0.42,-0.24 -0.96,-0.6 -0.54,-0.42 -1.14,-0.9 -0.6,-0.54 -1.2,-0.9 1.32,-0.84 1.86,-1.5 0.54,-0.72 1.14,-1.74 0.48,0.12 0.36,0.54 -0.06,0.42 -0.36,0.9 -0.3,0.42 -0.66,0.78 -0.36,0.36 -0.36,0.3 0,0.42 0.84,1.08 0.84,0.66 1.5,1.68 z"
         inkscape:connector-curvature="0" />
      <path
         id="path4157"
         style="font-style:normal;font-variant:normal;font-weight:normal;font-stretch:normal;font-family:EmbossedBlackWide;-inkscape-font-specification:EmbossedBlackWide"
         d="m -416.99632,397.28507 q 0,-1.02 -0.6,-0.78 -0.54,0.18 -1.32,0.9 -0.72,0.72 -1.5,1.62 -0.78,0.84 -1.14,1.2 -1.74,-1.68 -2.76,-3 -1.02,-1.38 -3.3,-2.64 -0.78,0.84 -3.12,3.72 -2.34,2.82 -5.82,7.2 0,0.3 0.36,0.54 0.42,0.24 0.78,0.24 0.6,0 1.44,-1.08 0.9,-1.08 2.28,-2.16 0.78,0.84 1.08,2.4 0.36,1.5 0.42,3.18 0.12,1.62 0,3.18 -0.06,1.5 -0.06,2.4 0,2.16 -0.12,4.44 -0.06,2.28 -0.12,5.1 0,3 1.26,4.92 1.26,1.86 2.82,3.48 1.56,1.62 2.82,3.36 1.26,1.8 1.26,4.62 0,2.52 -1.62,4.2 -1.62,1.74 -3.9,1.74 -0.84,0 -2.04,-0.78 -1.2,-0.72 -1.2,-1.74 0,-0.96 0.72,-1.5 0.72,-0.54 1.56,-0.9 0.9,-0.36 1.62,-0.72 0.78,-0.3 0.78,-0.9 0,-0.36 -0.42,-0.6 -0.36,-0.24 -1.14,-0.78 -0.72,-0.54 -1.86,-1.56 -1.08,-0.96 -2.46,-2.76 l -1.26,0 q -0.54,1.08 -1.38,1.74 -0.84,0.72 -1.68,1.26 -0.84,0.6 -1.5,1.2 -0.6,0.6 -0.6,1.56 0,1.02 0.96,2.34 1.02,1.38 2.52,2.58 1.56,1.26 3.36,2.1 1.86,0.84 3.48,0.84 2.34,0 4.26,-1.02 1.92,-1.02 3.3,-2.7 1.44,-1.68 2.16,-3.78 0.78,-2.04 0.72,-4.2 0,-0.36 -0.54,-1.92 -0.48,-1.5 -1.14,-3.24 -0.66,-1.68 -1.2,-3.06 -0.48,-1.38 -0.48,-1.44 -0.12,-3.3 -0.12,-5.94 0,-2.7 0.06,-5.22 0.06,-2.58 0.18,-5.22 0.12,-2.7 0.24,-5.94 0.06,-1.02 0.66,-1.98 0.66,-0.96 1.38,-1.8 0.72,-0.9 1.32,-1.56 0.6,-0.72 0.6,-1.14 z m -1.26,-12.96 q 0,-0.18 -0.9,-1.08 -0.9,-0.9 -2.1,-1.92 -1.14,-1.02 -2.22,-1.8 -1.08,-0.84 -1.38,-0.84 -0.06,0 -1.08,0.9 -0.96,0.84 -2.16,1.92 -1.14,1.02 -2.1,1.92 -0.9,0.9 -0.9,1.02 -0.06,0.18 0.78,1.2 0.84,0.96 1.98,2.1 1.14,1.08 2.16,1.98 1.08,0.84 1.5,0.84 0.36,0 1.38,-0.9 1.08,-0.96 2.16,-2.1 1.14,-1.2 1.98,-2.16 0.9,-1.02 0.9,-1.08 z m -8.82,22.68 q -0.06,4.38 -0.12,7.8 -0.06,3.36 -0.12,7.14 0,1.2 0,2.52 0,1.32 -0.06,2.82 -0.6,-1.08 -0.9,-1.68 -0.3,-0.6 -0.48,-0.96 -0.12,-0.36 -0.18,-0.54 0,-0.24 0,-0.6 l 0,-17.4 q 0,-1.44 -0.18,-2.28 -0.18,-0.9 -0.42,-1.38 -0.18,-0.54 -0.42,-0.72 -0.18,-0.24 -0.18,-0.42 0,-0.12 0.36,-0.42 0.42,-0.3 0.84,-0.9 1.86,0.84 1.92,2.52 0.12,1.62 -0.06,4.5 z m 12.48,-7.32 q 0,-1.02 -0.54,-0.84 -0.54,0.12 -1.26,0.84 -0.66,0.66 -1.38,1.5 -0.72,0.84 -1.08,1.2 -0.6,0.78 -0.66,1.5 0,0.66 0,1.5 0,0.42 0,0.78 0,0.36 -0.06,0.72 l 0,-0.06 q -0.12,3.72 -0.24,6.84 -0.06,3.06 -0.06,6.48 l 0,2.88 q 0,1.32 -0.06,2.46 -0.06,1.08 1.02,2.82 -0.06,-1.56 -0.12,-3 0,-1.44 0,-2.76 0,-4.14 0.12,-7.8 0.18,-3.72 0.36,-8.58 0.06,-1.02 0.66,-1.98 0.66,-0.96 1.38,-1.8 0.72,-0.9 1.32,-1.56 0.6,-0.72 0.6,-1.14 z m -6.96,47.04 q -1.26,1.38 -3.24,1.8 -1.92,0.42 -3.6,0.42 -0.78,0 -1.5,-0.18 l 0.42,0.24 q 0.84,0.48 1.8,0.66 0.96,0.18 1.68,0.18 2.34,0 4.26,-1.02 1.92,-1.02 3.3,-2.7 1.44,-1.68 2.16,-3.78 0.78,-2.04 0.72,-4.2 0,-0.36 -0.48,-1.68 -0.42,-1.32 -0.78,-2.16 0.36,0.96 0.36,1.44 0,2.88 -1.2,5.64 -1.2,2.76 -3.36,4.68 -0.36,0.48 -0.54,0.66 z m 0.18,-57.06 q 0,0.84 -0.78,0.84 l -0.3,0 q -0.9,0 -1.2,0.42 -0.24,0.36 -0.12,0.84 0.12,0.42 0.54,0.84 0.48,0.36 0.96,0.36 0.36,0 1.38,-0.9 1.08,-0.96 2.16,-2.1 1.14,-1.2 1.98,-2.16 0.9,-1.02 0.9,-1.08 0,-0.18 -0.9,-1.08 l -0.54,-0.54 q -0.66,0.78 -1.8,2.04 -1.14,1.2 -2.34,2.34 0.06,0.06 0.06,0.18 z m -2.4,-2.4 q 0,0.84 -0.78,0.84 -0.66,0 -1.38,-0.96 -0.72,-0.96 -3,-2.46 0.6,-0.6 1.5,-1.5 0.9,-0.9 1.68,-1.56 0.84,-0.72 1.38,-0.84 0.6,-0.12 0.6,0.78 0,0.48 -0.42,0.84 -0.36,0.3 -0.84,0.6 -0.48,0.24 -0.9,0.6 -0.36,0.3 -0.36,0.84 0,0.18 0.36,0.6 0.42,0.36 0.9,0.78 0.48,0.36 0.84,0.78 0.42,0.42 0.42,0.66 z m -8.22,49.38 q 0,0.66 -0.42,0.96 -0.36,0.36 -0.84,0.6 -0.42,0.3 -0.84,0.6 -0.36,0.3 -0.36,0.78 0,0.3 0.3,0.54 0.3,0.24 0.66,0.48 0.36,0.24 0.66,0.48 0.3,0.24 0.3,0.6 0,0.6 -0.18,0.96 -0.12,0.36 -0.12,0.84 -1.5,-1.14 -2.46,-1.86 -0.96,-0.72 -0.96,-1.68 0,-0.9 1.2,-1.68 1.2,-0.78 3.06,-1.62 z m 3.84,7.86 0.18,-0.12 q 1.08,-0.78 2.22,-1.14 1.14,-0.3 1.68,-1.62 -0.12,-0.24 -0.48,-0.42 -0.3,-0.18 -0.72,-0.42 -0.24,0.36 -0.96,0.72 -0.72,0.36 -1.5,0.72 -0.72,0.36 -1.32,0.66 -0.54,0.36 -0.54,0.66 0,0.24 0.66,0.54 0.66,0.36 0.78,0.42 z m -6,-36.6 q 0,0.3 0.36,0.54 0.42,0.24 0.78,0.24 0.48,0 1.08,-0.6 -0.06,-0.66 -0.12,-1.26 0,-0.66 -0.06,-1.38 -0.12,0.12 -0.3,0.3 -0.12,0.18 -0.24,0.3 l -0.12,0.12 q -0.3,0.42 -0.66,0.84 -0.36,0.42 -0.72,0.9 z"
         inkscape:connector-curvature="0" />
      <path
         id="path4159"
         style="font-style:normal;font-variant:normal;font-weight:normal;font-stretch:normal;font-family:EmbossedBlackWide;-inkscape-font-specification:EmbossedBlackWide"
         d="m -383.91195,394.76507 q 0,-0.3 -0.42,-1.02 -0.36,-0.78 -1.2,-0.78 -0.72,0 -0.96,0.48 -0.18,0.42 -0.3,1.26 -0.06,0.78 -0.24,1.86 -0.12,1.08 -0.78,2.34 l -0.66,0 q -1.62,-0.9 -2.22,-1.68 -0.54,-0.84 -0.78,-1.5 -0.24,-0.72 -0.48,-1.26 -0.24,-0.6 -1.14,-1.02 -3.42,2.64 -6.36,3.84 -2.88,1.2 -5.1,1.8 -2.16,0.54 -3.48,0.9 -1.32,0.3 -1.62,1.26 0,0.06 -0.24,3.36 -0.18,3.24 -0.18,10.44 0,0.48 0.6,0.66 0.6,0.18 0.96,0.18 0.3,0 1.44,-0.36 1.2,-0.42 2.46,-0.9 1.32,-0.48 2.34,-0.84 1.08,-0.42 1.14,-0.42 0.42,0 -0.72,1.2 -1.08,1.2 -2.58,2.64 -1.44,1.44 -2.7,2.7 -1.26,1.2 -1.26,1.26 -3.84,4.56 -3.84,7.56 0,0.9 0.12,1.5 0.12,0.6 1.44,0.6 1.02,0 1.44,-0.24 0.48,-0.18 0.48,-1.26 0,-0.66 -0.18,-1.44 -0.18,-0.84 -0.18,-1.56 0,-0.72 0.42,-1.2 0.48,-0.54 1.62,-0.54 2.64,0 4.08,1.86 1.44,1.8 1.62,3.72 l 1.56,0 q 1.98,-2.04 4.5,-3.36 2.52,-1.38 4.8,-2.22 2.34,-0.84 4.02,-1.2 1.74,-0.36 2.04,-0.36 l 0,-15.9 -2.1,0 q -0.96,0.3 -2.58,0.78 -1.62,0.48 -3.6,0.48 2.16,-1.98 3.78,-4.2 1.62,-2.28 2.76,-4.26 1.14,-1.98 1.68,-3.42 0.6,-1.44 0.6,-1.74 z m -7.86,9.12 q 0,0.24 -0.72,1.26 -0.66,1.02 -1.74,2.22 -1.08,1.14 -2.46,2.16 -1.38,1.02 -2.82,1.2 l 0,-9.66 q 3.12,1.02 5.4,1.92 2.28,0.84 2.34,0.9 z m -2.82,17.28 q -1.5,-0.66 -2.04,-1.02 -0.54,-0.42 -1.2,-0.6 -0.66,-0.18 -1.92,-0.24 -1.2,-0.06 -4.08,-0.06 0.12,-0.06 1.2,-1.14 1.14,-1.14 2.58,-2.46 1.44,-1.38 2.88,-2.58 1.5,-1.2 2.28,-1.56 0.3,2.52 0.36,3.54 0.12,0.96 0.12,1.62 0,0.6 -0.12,1.5 -0.06,0.84 -0.06,3 z m -4.38,11.4 1.56,0 q 1.98,-2.04 4.5,-3.36 2.52,-1.38 4.8,-2.22 2.34,-0.84 4.02,-1.2 1.74,-0.36 2.04,-0.36 l 0,-15.9 -0.9,0 0,15 q -0.24,0 -1.5,0.24 -1.26,0.18 -3.06,0.72 -1.8,0.48 -3.9,1.32 -2.1,0.78 -4.08,1.98 -0.42,0.48 -1.02,0.84 -0.54,0.36 -1.14,0.72 l 0,-0.06 q 0,0.36 -0.3,0.48 -0.24,0.18 -0.54,0.36 -0.24,0.18 -0.42,0.48 -0.18,0.3 -0.06,0.96 z m -7.02,-19.2 q -0.42,0.06 -0.78,0.12 -0.3,0.06 -0.66,0.12 l -0.42,-9.48 q 0.3,-0.9 0.36,-1.32 0.06,-0.48 0.36,-1.32 l 1.14,0 q 0.42,1.38 0.54,2.46 0.18,1.08 0.12,2.34 -0.06,1.2 -0.24,2.88 -0.18,1.62 -0.42,4.2 z m 15.48,-3.12 -0.42,12.78 q -0.42,0.06 -0.66,0.12 -0.24,0.06 -0.54,0.12 -0.18,-0.48 -0.3,-1.5 -0.12,-1.02 -0.18,-2.1 0,-1.14 -0.06,-2.1 0,-1.02 -0.06,-1.38 0,-0.9 -0.06,-1.8 -0.06,-0.9 0.06,-1.68 0.18,-0.84 0.66,-1.44 0.48,-0.66 1.56,-1.02 z m 9,-13.08 q 0,-0.24 -0.3,-0.84 -0.3,-0.66 -0.78,-0.84 -0.48,1.38 -2.04,4.44 -1.5,3.06 -4.08,6.3 0.48,-0.12 0.9,-0.3 0.48,-0.18 0.96,-0.3 l 0.96,0 q 0.66,-0.96 1.38,-2.28 0.78,-1.38 1.44,-2.64 0.66,-1.26 1.08,-2.22 0.48,-1.02 0.48,-1.32 z m -15.96,28.38 q 0,0.54 -0.78,1.14 -0.78,0.6 -1.8,1.26 -0.24,-1.44 -0.96,-2.28 -0.72,-0.84 -1.68,-1.26 -0.96,-0.42 -2.1,-0.54 -1.08,-0.18 -2.1,-0.36 0.3,-0.18 1.2,-0.6 0.9,-0.42 1.26,-0.42 0.12,0 1.2,0.18 1.14,0.18 2.4,0.6 1.26,0.36 2.28,0.96 1.08,0.54 1.08,1.32 z m -12.3,6.78 0.06,0.3 q 0.06,0.6 1.44,0.6 1.02,0 1.44,-0.24 0.48,-0.18 0.48,-1.26 0,-0.66 -0.18,-1.5 -0.18,-0.78 -0.18,-1.5 0,-1.56 1.92,-1.74 -1.08,-0.9 -2.28,-0.9 -0.54,0 -0.54,0.3 0,0.6 0.18,1.38 0.18,0.72 0.18,1.56 0,1.86 -0.6,2.4 -0.54,0.54 -1.92,0.6 z m 13.8,-15.84 q 0,-0.36 -0.06,-0.84 0,-0.48 -0.12,-1.44 -0.9,0.72 -1.98,1.74 -1.02,0.96 -1.98,1.86 1.68,0 2.46,0.18 0.42,-0.36 0.84,-0.72 0.42,-0.36 0.84,-0.78 z m 2.34,-15.42 q -1.5,-0.54 -2.52,-0.9 -1.02,-0.42 -2.46,-1.44 0.6,-0.3 1.14,-0.66 0.54,-0.36 0.96,-0.36 0.9,0 1.44,1.26 0.6,1.26 1.44,2.1 z m -3.48,7.08 0,-4.68 q -0.12,-0.06 -0.36,-0.12 -0.24,-0.06 -0.54,-0.18 l 0,5.52 q 0.42,-0.18 0.9,-0.54 z m -10.26,9.84 1.08,-1.08 q -0.18,0.18 -0.72,0.24 -0.48,0.06 -0.66,0.12 l 0,0.18 q 0,0.36 0.3,0.54 z m 8.4,7.5 q -0.12,-0.3 -0.6,-0.54 0.06,0.3 0.18,0.36 0.12,0.06 0.42,0.18 z"
         inkscape:connector-curvature="0" />
    </g>
  </g>
</svg>
