<?xml version="1.0" encoding="UTF-8" standalone="no"?>
<svg
   xmlns:dc="http://purl.org/dc/elements/1.1/"
   xmlns:cc="http://creativecommons.org/ns#"
   xmlns:rdf="http://www.w3.org/1999/02/22-rdf-syntax-ns#"
   xmlns:svg="http://www.w3.org/2000/svg"
   xmlns="http://www.w3.org/2000/svg"
   version="1.1"
   id="svg2"
   viewBox="0 0 630.00001 30.890008"
   height="8.7178469mm"
   width="177.8mm">
  <defs
     id="defs4" />
  <metadata
     id="metadata7">
    <rdf:RDF>
      <cc:Work
         rdf:about="">
        <dc:format>image/svg+xml</dc:format>
        <dc:type
           rdf:resource="http://purl.org/dc/dcmitype/StillImage" />
        <dc:title></dc:title>
      </cc:Work>
    </rdf:RDF>
  </metadata>
  <g
     transform="translate(976.68071,-133.57718)"
     id="layer1">
    <path
       d="m -626.18948,149.25955 q 5.29039,4.6046 8.73566,1.60017 l 6.51502,-5.32303 q 5.86188,-4.45765 10.84203,3.03707 -4.91483,-4.34335 -8.81731,-0.81642 l -6.62931,5.42102 q -5.5843,3.20036 -10.64609,-3.91881 z m -15.83851,0 q 5.29039,4.6046 8.73567,1.60017 l 6.51501,-5.32303 q 5.86189,-4.45765 10.84203,3.03707 -4.91483,-4.34335 -8.81731,-0.81642 l -6.62931,5.42102 q -5.5843,3.20036 -10.64609,-3.91881 z m 38.91047,-0.27759 q -1.04501,0.83275 -2.13901,2.07371 l -2.188,-1.97574 q 0.65314,-1.20829 2.12269,-2.15534 l 2.20432,2.05737 z m -15.49561,0.0326 q -1.04501,0.83274 -2.13901,2.0737 l -2.188,-1.97573 q 0.65314,-1.2083 2.12269,-2.15535 l 2.20432,2.05738 z m 24.10065,0.24495 q 5.29038,4.6046 8.73567,1.60017 l 6.51502,-5.32303 q 5.86187,-4.45765 10.84202,3.03707 -4.91484,-4.34335 -8.81731,-0.81642 l -6.62931,5.42102 q -5.5843,3.20036 -10.64609,-3.91881 z m -15.8385,0 q 5.29039,4.6046 8.73567,1.60017 l 6.51501,-5.32303 q 5.86188,-4.45765 10.84203,3.03707 -4.91484,-4.34335 -8.81731,-0.81642 l -6.62932,5.42102 q -5.58429,3.20036 -10.64608,-3.91881 z m 38.91046,-0.27759 q -1.045,0.83275 -2.139,2.07371 l -2.188,-1.97574 q 0.65312,-1.20829 2.12267,-2.15534 l 2.20433,2.05737 z m -15.4956,0.0326 q -1.04501,0.83274 -2.13901,2.0737 l -2.188,-1.97573 q 0.65312,-1.2083 2.12268,-2.15535 l 2.20433,2.05738 z m 24.10064,0.24495 q 5.29039,4.6046 8.73567,1.60017 l 6.51501,-5.32303 q 5.86189,-4.45765 10.84203,3.03707 -4.91483,-4.34335 -8.81731,-0.81642 l -6.6293,5.42102 q -5.58431,3.20036 -10.6461,-3.91881 z m -15.8385,0 q 5.29039,4.6046 8.73567,1.60017 l 6.51502,-5.32303 q 5.86187,-4.45765 10.84203,3.03707 -4.91484,-4.34335 -8.81732,-0.81642 l -6.62931,5.42102 q -5.5843,3.20036 -10.64609,-3.91881 z m 38.91047,-0.27759 q -1.04502,0.83275 -2.13902,2.07371 l -2.18799,-1.97574 q 0.65313,-1.20829 2.12268,-2.15534 l 2.20433,2.05737 z m -15.49561,0.0326 q -1.04502,0.83274 -2.13902,2.0737 l -2.188,-1.97573 q 0.65314,-1.2083 2.12269,-2.15535 l 2.20433,2.05738 z m 24.10067,0.24495 q 5.29039,4.6046 8.73566,1.60017 l 6.51502,-5.32303 q 5.86187,-4.45765 10.84202,3.03707 -4.91483,-4.34335 -8.8173,-0.81642 l -6.62932,5.42102 q -5.58429,3.20036 -10.64608,-3.91881 z m -15.83851,0 q 5.29039,4.6046 8.73567,1.60017 l 6.51501,-5.32303 q 5.86188,-4.45765 10.84203,3.03707 -4.91483,-4.34335 -8.81731,-0.81642 l -6.62931,5.42102 q -5.5843,3.20036 -10.64609,-3.91881 z m 38.91047,-0.27759 q -1.04501,0.83275 -2.13901,2.07371 l -2.188,-1.97574 q 0.65313,-1.20829 2.12269,-2.15534 l 2.20432,2.05737 z m -15.49561,0.0326 q -1.04501,0.83274 -2.13901,2.0737 l -2.188,-1.97573 q 0.65313,-1.2083 2.12269,-2.15535 l 2.20432,2.05738 z m 24.10064,0.24495 q 5.29039,4.6046 8.73568,1.60017 l 6.51502,-5.32303 q 5.86187,-4.45765 10.84202,3.03707 -4.91484,-4.34335 -8.81731,-0.81642 l -6.62931,5.42102 q -5.58431,3.20036 -10.6461,-3.91881 z m -15.83849,0 q 5.29038,4.6046 8.73567,1.60017 l 6.51501,-5.32303 q 5.86188,-4.45765 10.84203,3.03707 -4.91484,-4.34335 -8.81732,-0.81642 l -6.62931,5.42102 q -5.58429,3.20036 -10.64608,-3.91881 z m 38.91046,-0.27759 q -1.04502,0.83275 -2.13901,2.07371 l -2.188,-1.97574 q 0.65313,-1.20829 2.12268,-2.15534 l 2.20433,2.05737 z m -15.49561,0.0326 q -1.04501,0.83274 -2.139,2.0737 l -2.18801,-1.97573 q 0.65313,-1.2083 2.12268,-2.15535 l 2.20433,2.05738 z m 24.10065,0.24495 q 5.29039,4.6046 8.73567,1.60017 l 6.51501,-5.32303 q 5.86188,-4.45765 10.84203,3.03707 -4.91483,-4.34335 -8.81731,-0.81642 l -6.62932,5.42102 q -5.58429,3.20036 -10.64608,-3.91881 z m -15.8385,0 q 5.29039,4.6046 8.73566,1.60017 l 6.51502,-5.32303 q 5.86188,-4.45765 10.84202,3.03707 -4.91482,-4.34335 -8.8173,-0.81642 l -6.62931,5.42102 q -5.5843,3.20036 -10.64609,-3.91881 z m 38.91047,-0.27759 q -1.04502,0.83275 -2.13902,2.07371 l -2.188,-1.97574 q 0.65314,-1.20829 2.12269,-2.15534 l 2.20433,2.05737 z m -15.49561,0.0326 q -1.04502,0.83274 -2.13902,2.0737 l -2.188,-1.97573 q 0.65314,-1.2083 2.12269,-2.15535 l 2.20433,2.05738 z m 24.10066,0.24495 q 5.29038,4.6046 8.73567,1.60017 l 6.51501,-5.32303 q 5.86188,-4.45765 10.84203,3.03707 -4.91484,-4.34335 -8.81732,-0.81642 l -6.62931,5.42102 q -5.58429,3.20036 -10.64608,-3.91881 z m -15.83851,0 q 5.29038,4.6046 8.73567,1.60017 l 6.51501,-5.32303 q 5.86188,-4.45765 10.84203,3.03707 -4.91484,-4.34335 -8.81731,-0.81642 l -6.62932,5.42102 q -5.58429,3.20036 -10.64608,-3.91881 z m 38.91046,-0.27759 q -1.045,0.83275 -2.139,2.07371 l -2.18801,-1.97574 q 0.65314,-1.20829 2.12269,-2.15534 l 2.20432,2.05737 z m -15.4956,0.0326 q -1.04501,0.83274 -2.13901,2.0737 l -2.188,-1.97573 q 0.65313,-1.2083 2.12269,-2.15535 l 2.20432,2.05738 z m 24.10065,0.24495 q 5.29039,4.6046 8.73567,1.60017 l 6.51501,-5.32303 q 5.86189,-4.45765 10.84203,3.03707 -4.91483,-4.34335 -8.81731,-0.81642 l -6.62931,5.42102 q -5.5843,3.20036 -10.64609,-3.91881 z m -15.83851,0 q 5.29039,4.6046 8.73568,1.60017 l 6.51501,-5.32303 q 5.86188,-4.45765 10.84203,3.03707 -4.91484,-4.34335 -8.81732,-0.81642 l -6.6293,5.42102 q -5.58431,3.20036 -10.6461,-3.91881 z m 38.91048,-0.27759 q -1.04502,0.83275 -2.13902,2.07371 l -2.188,-1.97574 q 0.65314,-1.20829 2.12269,-2.15534 l 2.20433,2.05737 z m -15.49561,0.0326 q -1.04502,0.83274 -2.13902,2.0737 l -2.188,-1.97573 q 0.65314,-1.2083 2.12269,-2.15535 l 2.20433,2.05738 z m 24.10065,0.24495 q 5.29038,4.6046 8.73567,1.60017 l 6.51501,-5.32303 q 5.86188,-4.45765 10.84203,3.03707 -4.91484,-4.34335 -8.81731,-0.81642 l -6.62932,5.42102 q -5.58429,3.20036 -10.64608,-3.91881 z m -15.83851,0 q 5.2904,4.6046 8.73567,1.60017 l 6.51502,-5.32303 q 5.86187,-4.45765 10.84202,3.03707 -4.91482,-4.34335 -8.8173,-0.81642 l -6.62932,5.42102 q -5.5843,3.20036 -10.64609,-3.91881 z m 38.91048,-0.27759 q -1.04502,0.83275 -2.13902,2.07371 l -2.188,-1.97574 q 0.65313,-1.20829 2.12269,-2.15534 l 2.20433,2.05737 z m -15.49561,0.0326 q -1.04502,0.83274 -2.13902,2.0737 l -2.188,-1.97573 q 0.65314,-1.2083 2.12269,-2.15535 l 2.20433,2.05738 z m -297.62816,-2.72317 q -1.21227,-0.88463 -2.32626,-2.52285 l -2.55561,2.55561 q 0.95016,1.34335 2.45732,2.78498 l 2.42455,-2.81774 z m 15.43199,-3.63683 q -1.63821,-1.99863 -5.89757,-2.85049 l -0.0327,0.13105 q 1.70373,0.52423 2.68666,1.47439 1.0157,0.91741 1.50717,2.62114 0.52422,1.67099 -2.52286,3.60409 l 2.52286,1.34333 q 1.7365,-0.32764 2.55561,-2.32626 0.81911,-1.99863 -0.81911,-3.99725 z m -13.13849,21.23126 q 2.26074,1.17951 4.03002,-0.0327 1.76927,-1.24504 1.70375,-2.98155 l -1.76928,-2.12968 q -1.27781,3.3092 -3.01432,3.17813 -1.7365,-0.13106 -2.85049,-0.88463 -1.08122,-0.78634 -1.93309,-2.32626 l -0.13106,0.0655 q 1.70374,3.93171 3.96447,5.11122 z m 1.63823,-23.32818 q -4.16107,-0.29488 -9.96035,3.80066 l 0.16382,0.19659 q 2.49008,-1.44163 4.68529,-1.57268 2.22797,-0.13107 4.7836,1.14675 2.55561,1.2778 1.50715,7.01155 l 4.32489,-1.4744 q 1.57268,-2.42455 0.13105,-5.60269 -1.44162,-3.21089 -5.63545,-3.50578 z m 11.10709,11.72962 q -0.81911,-4.1283 -6.29075,-8.61701 l -0.13105,0.19658 q 2.03139,2.03139 2.7522,4.12831 0.72081,2.09692 0.16382,4.91464 -0.55699,2.78497 -6.38904,3.27643 l 2.58838,3.80066 q 2.71944,0.85187 5.43887,-1.37609 2.71945,-2.22798 1.86757,-6.32352 z m -18.57736,-13.00743 q -8.48594,5.73375 -4.32489,10.02588 4.19384,4.25936 6.71668,4.16107 2.55563,-0.13106 5.144,-3.47302 l -0.19658,-0.0655 q -1.99863,1.67097 -4.61977,0.52422 -2.62115,-1.14675 -4.71806,-4.1283 -2.06414,-2.98155 2.09691,-6.84774 l -0.0983,-0.19658 z m 3.89896,1.50717 q -6.45457,-10.32076 -10.6484,-4.35765 -4.19383,5.93033 -3.93171,9.23953 0.29487,3.27643 3.89894,6.22521 l 0.0328,-0.26212 q -1.80203,-2.39179 -0.78635,-5.93033 1.0157,-3.53854 3.96449,-6.61839 2.98155,-3.07985 7.24091,1.8348 l 0.22935,-0.13105 z m 9.99311,3.47301 q 2.94878,-9.79652 -2.98155,-10.48458 -5.93034,-0.68804 -7.86344,1.0157 -1.90033,1.67098 -1.80204,5.89757 l 0.1966,-0.0655 q 0.52422,-2.55561 3.27642,-3.30919 2.75221,-0.78634 6.22522,0.22935 3.50578,0.98293 2.71943,6.61839 l 0.22936,0.0983 z m -7.01157,3.3092 q -0.91739,-0.62253 -1.7365,-1.83481 l -1.90033,1.86757 q 0.72082,1.0157 1.8348,2.09692 l 1.80203,-2.12968 z m -10.61562,0.91739 q -1.9331,10.0914 4.03,10.15694 5.99587,0.0655 7.69961,-1.80204 1.73651,-1.90033 1.17951,-6.09416 l -0.16382,0.0983 q -0.26211,2.58837 -2.91601,3.63683 -2.65392,1.04846 -6.22522,0.42593 -3.57131,-0.65528 -3.37473,-6.3235 l -0.22934,-0.0983 z m -0.42594,13.23678 q 4.19383,0.39317 10.05864,-3.57131 l -0.13106,-0.16382 q -2.55562,1.34333 -4.78359,1.44163 -2.19521,0.0655 -4.71805,-1.27781 -2.52285,-1.34333 -1.31057,-7.07708 l -4.35766,1.37609 q -1.63822,2.3918 -0.29487,5.63546 1.3761,3.24367 5.53716,3.63684 z m -26.64712,-12.46387 q -5.29039,4.6046 -8.73566,1.60017 l -6.51502,-5.32303 q -5.86187,-4.45765 -10.84203,3.03707 4.91483,-4.34335 8.81731,-0.81642 l 6.62931,5.42102 q 5.5843,3.20036 10.64609,-3.91881 z m 15.83851,0 q -5.29039,4.6046 -8.73567,1.60017 l -6.51501,-5.32303 q -5.86189,-4.45765 -10.84203,3.03707 4.91483,-4.34335 8.81731,-0.81642 l 6.62931,5.42102 q 5.5843,3.20036 10.64609,-3.91881 z m -38.91047,-0.27759 q 1.04501,0.83275 2.13901,2.07371 l 2.188,-1.97574 q -0.65313,-1.20829 -2.12269,-2.15534 l -2.20432,2.05737 z m 15.49561,0.0326 q 1.04501,0.83274 2.13901,2.0737 l 2.188,-1.97573 q -0.65313,-1.2083 -2.12269,-2.15535 l -2.20432,2.05738 z m -24.10065,0.24495 q -5.29038,4.6046 -8.73567,1.60017 l -6.51502,-5.32303 q -5.86187,-4.45765 -10.84202,3.03707 4.91484,-4.34335 8.81731,-0.81642 l 6.62931,5.42102 q 5.5843,3.20036 10.64609,-3.91881 z m 15.8385,0 q -5.29039,4.6046 -8.73567,1.60017 l -6.51501,-5.32303 q -5.86188,-4.45765 -10.84203,3.03707 4.91484,-4.34335 8.81731,-0.81642 l 6.62932,5.42102 q 5.58429,3.20036 10.64608,-3.91881 z m -38.91046,-0.27759 q 1.045,0.83275 2.139,2.07371 l 2.188,-1.97574 q -0.65312,-1.20829 -2.12267,-2.15534 l -2.20433,2.05737 z m 15.4956,0.0326 q 1.04502,0.83274 2.13901,2.0737 l 2.188,-1.97573 q -0.65312,-1.2083 -2.12268,-2.15535 l -2.20433,2.05738 z m -24.10064,0.24495 q -5.29039,4.6046 -8.73567,1.60017 l -6.51501,-5.32303 q -5.86189,-4.45765 -10.84203,3.03707 4.91483,-4.34335 8.81731,-0.81642 l 6.62931,5.42102 q 5.5843,3.20036 10.64609,-3.91881 z m 15.8385,0 q -5.29039,4.6046 -8.73567,1.60017 l -6.51502,-5.32303 q -5.86187,-4.45765 -10.84202,3.03707 4.91483,-4.34335 8.81731,-0.81642 l 6.62931,5.42102 q 5.5843,3.20036 10.64609,-3.91881 z m -38.91047,-0.27759 q 1.04502,0.83275 2.13902,2.07371 l 2.188,-1.97574 q -0.65314,-1.20829 -2.12269,-2.15534 l -2.20433,2.05737 z m 15.49561,0.0326 q 1.04502,0.83274 2.13902,2.0737 l 2.188,-1.97573 q -0.65314,-1.2083 -2.12269,-2.15535 l -2.20433,2.05738 z m -24.10066,0.24495 q -5.2904,4.6046 -8.73567,1.60017 l -6.51502,-5.32303 q -5.86187,-4.45765 -10.84202,3.03707 4.91483,-4.34335 8.8173,-0.81642 l 6.62932,5.42102 q 5.5843,3.20036 10.64609,-3.91881 z m 15.8385,0 q -5.29039,4.6046 -8.73567,1.60017 l -6.51501,-5.32303 q -5.86188,-4.45765 -10.84203,3.03707 4.91483,-4.34335 8.81731,-0.81642 l 6.62931,5.42102 q 5.5843,3.20036 10.64609,-3.91881 z m -38.91047,-0.27759 q 1.04501,0.83275 2.13901,2.07371 l 2.188,-1.97574 q -0.65313,-1.20829 -2.12269,-2.15534 l -2.20432,2.05737 z m 15.49561,0.0326 q 1.04501,0.83274 2.13901,2.0737 l 2.188,-1.97573 q -0.65313,-1.2083 -2.12269,-2.15535 l -2.20432,2.05738 z m -24.10064,0.24495 q -5.29039,4.6046 -8.73568,1.60017 l -6.51501,-5.32303 q -5.86188,-4.45765 -10.84203,3.03707 4.91484,-4.34335 8.81732,-0.81642 l 6.6293,5.42102 q 5.58431,3.20036 10.6461,-3.91881 z m 15.83849,0 q -5.29038,4.6046 -8.73566,1.60017 l -6.51502,-5.32303 q -5.86188,-4.45765 -10.84203,3.03707 4.91484,-4.34335 8.81732,-0.81642 l 6.62931,5.42102 q 5.58429,3.20036 10.64608,-3.91881 z m -38.91046,-0.27759 q 1.04502,0.83275 2.13902,2.07371 l 2.18799,-1.97574 q -0.65313,-1.20829 -2.12268,-2.15534 l -2.20433,2.05737 z m 15.49561,0.0326 q 1.04501,0.83274 2.13902,2.0737 l 2.18799,-1.97573 q -0.65313,-1.2083 -2.12268,-2.15535 l -2.20433,2.05738 z m -24.10065,0.24495 q -5.29039,4.6046 -8.73567,1.60017 l -6.51501,-5.32303 q -5.86188,-4.45765 -10.84203,3.03707 4.91483,-4.34335 8.81731,-0.81642 l 6.62932,5.42102 q 5.58429,3.20036 10.64608,-3.91881 z m 15.83851,0 q -5.2904,4.6046 -8.73567,1.60017 l -6.51502,-5.32303 q -5.86188,-4.45765 -10.84202,3.03707 4.91482,-4.34335 8.8173,-0.81642 l 6.62931,5.42102 q 5.58431,3.20036 10.6461,-3.91881 z m -38.91048,-0.27759 q 1.04502,0.83275 2.13902,2.07371 l 2.188,-1.97574 q -0.65314,-1.20829 -2.12269,-2.15534 l -2.20433,2.05737 z m 15.49561,0.0326 q 1.04502,0.83274 2.13902,2.0737 l 2.188,-1.97573 q -0.65314,-1.2083 -2.12269,-2.15535 l -2.20433,2.05738 z m -24.10066,0.24495 q -5.29038,4.6046 -8.73566,1.60017 l -6.51502,-5.32303 q -5.86188,-4.45765 -10.84203,3.03707 4.91484,-4.34335 8.81732,-0.81642 l 6.62931,5.42102 q 5.58429,3.20036 10.64608,-3.91881 z m 15.83851,0 q -5.29038,4.6046 -8.73567,1.60017 l -6.51501,-5.32303 q -5.86188,-4.45765 -10.84203,3.03707 4.91484,-4.34335 8.81731,-0.81642 l 6.62932,5.42102 q 5.58429,3.20036 10.64608,-3.91881 z m -38.91046,-0.27759 q 1.045,0.83275 2.139,2.07371 l 2.18801,-1.97574 q -0.65314,-1.20829 -2.12269,-2.15534 l -2.20432,2.05737 z m 15.4956,0.0326 q 1.04501,0.83274 2.13901,2.0737 l 2.188,-1.97573 q -0.65313,-1.2083 -2.12269,-2.15535 l -2.20432,2.05738 z m -24.10065,0.24495 q -5.29039,4.6046 -8.73567,1.60017 l -6.51501,-5.32303 q -5.86189,-4.45765 -10.84203,3.03707 4.91483,-4.34335 8.81731,-0.81642 l 6.62931,5.42102 q 5.5843,3.20036 10.64609,-3.91881 z m 15.83851,0 q -5.29039,4.6046 -8.73568,1.60017 l -6.51501,-5.32303 q -5.86188,-4.45765 -10.84203,3.03707 4.91484,-4.34335 8.81732,-0.81642 l 6.6293,5.42102 q 5.58431,3.20036 10.6461,-3.91881 z m -38.91048,-0.27759 q 1.04502,0.83275 2.13902,2.07371 l 2.188,-1.97574 q -0.65314,-1.20829 -2.12269,-2.15534 l -2.20433,2.05737 z m 15.49561,0.0326 q 1.04502,0.83274 2.13902,2.0737 l 2.188,-1.97573 q -0.65314,-1.2083 -2.12269,-2.15535 l -2.20433,2.05738 z m -24.10065,0.24495 q -5.29038,4.6046 -8.73567,1.60017 l -6.51501,-5.32303 q -5.86188,-4.45765 -10.84203,3.03707 4.91484,-4.34335 8.81731,-0.81642 l 6.62932,5.42102 q 5.58429,3.20036 10.64608,-3.91881 z m 15.83851,0 q -5.29039,4.6046 -8.73567,1.60017 l -6.51502,-5.32303 q -5.86187,-4.45765 -10.84202,3.03707 4.91483,-4.34335 8.8173,-0.81642 l 6.62932,5.42102 q 5.5843,3.20036 10.64609,-3.91881 z m -38.91048,-0.27759 q 1.04502,0.83275 2.13902,2.07371 l 2.188,-1.97574 q -0.65313,-1.20829 -2.12269,-2.15534 l -2.20433,2.05737 z m 15.49561,0.0326 q 1.04502,0.83274 2.13902,2.0737 l 2.188,-1.97573 q -0.65314,-1.2083 -2.12269,-2.15535 l -2.20433,2.05738 z"
       style="font-style:normal;font-variant:normal;font-weight:normal;font-stretch:normal;font-size:medium;line-height:125%;font-family:'Kingthings Flourishes';-inkscape-font-specification:'Kingthings Flourishes';text-align:end;letter-spacing:0px;word-spacing:0px;text-anchor:end;fill:#000000;fill-opacity:1;stroke:none;stroke-width:1px;stroke-linecap:butt;stroke-linejoin:miter;stroke-opacity:1"
       id="path4290" />
  </g>
</svg>
