<svg xmlns="http://www.w3.org/2000/svg" viewBox="0 0 630 30.9"><defs/><path d="M350.5 15.7q5.3 4.6 8.7 1.6l6.5-5.3q5.9-4.5 10.9 3-5-4.3-8.8-.8l-6.7 5.4q-5.5 3.2-10.6-4zm-15.8 0q5.2 4.6 8.7 1.6l6.5-5.3q5.9-4.5 10.8 3-4.9-4.3-8.8-.8l-6.6 5.4q-5.6 3.2-10.6-4zm38.9-.3l-2.2 2-2.2-1.9q.7-1.2 2.2-2.2l2.2 2.1zm-15.5 0l-2.2 2.1-2.2-2q.7-1.2 2.2-2.1l2.2 2zm24 .3q5.4 4.6 8.8 1.6l6.5-5.3q5.9-4.5 10.9 3-5-4.3-8.9-.8l-6.6 5.4q-5.6 3.2-10.6-4zm-15.8 0q5.3 4.6 8.8 1.6l6.5-5.3q5.8-4.5 10.8 3-4.9-4.3-8.8-.8l-6.6 5.4q-5.6 3.2-10.7-4zm39-.3q-1.1.8-2.2 2l-2.2-1.9q.7-1.2 2.1-2.2l2.2 2.1zm-15.6 0q-1 .9-2 2.1l-2.3-2q.7-1.2 2.1-2.1l2.2 2zm24.1.3q5.3 4.6 8.8 1.6L429 12q5.9-4.5 10.8 3-4.9-4.3-8.8-.8l-6.6 5.4q-5.6 3.2-10.7-4zm-15.8 0q5.3 4.6 8.7 1.6l6.6-5.3q5.8-4.5 10.8 3-5-4.3-8.8-.8l-6.6 5.4q-5.6 3.2-10.7-4zm39-.3q-1.1.8-2.2 2l-2.2-1.9q.6-1.2 2.1-2.2l2.2 2.1zm-15.6 0l-2.1 2.1-2.2-2q.6-1.2 2.1-2.1l2.2 2zm24.1.3q5.3 4.6 8.8 1.6l6.5-5.3q5.8-4.5 10.8 3-4.9-4.3-8.8-.8l-6.6 5.4q-5.6 3.2-10.7-4zm-15.8 0q5.3 4.6 8.7 1.6L445 12q5.9-4.5 10.9 3-5-4.3-8.8-.8l-6.7 5.4q-5.6 3.2-10.6-4zm38.9-.3q-1 .8-2.1 2l-2.2-1.9q.6-1.2 2-2.2l2.3 2.1zm-15.5 0l-2.1 2.1-2.2-2q.6-1.2 2-2.1l2.3 2zm24.1.3q5.3 4.6 8.7 1.6l6.5-5.3q6-4.5 10.9 3-5-4.3-8.8-.8l-6.7 5.4q-5.5 3.2-10.6-4zm-15.8 0q5.3 4.6 8.7 1.6l6.5-5.3q5.9-4.5 10.9 3-5-4.3-8.9-.8l-6.6 5.4q-5.6 3.2-10.6-4zm38.9-.3l-2.2 2-2.2-1.9q.7-1.2 2.2-2.2l2.2 2.1zm-15.5 0l-2.2 2.1-2.2-2q.7-1.2 2.2-2.1l2.2 2zm24 .3q5.4 4.6 8.8 1.6l6.5-5.3q5.9-4.5 10.9 3-5-4.3-8.8-.8l-6.7 5.4q-5.6 3.2-10.6-4zm-15.8 0q5.3 4.6 8.8 1.6l6.5-5.3q5.9-4.5 10.8 3-4.9-4.3-8.8-.8l-6.6 5.4q-5.6 3.2-10.7-4zm39-.3q-1.1.8-2.2 2l-2.2-1.9q.7-1.2 2.1-2.2l2.2 2.1zm-15.5 0l-2.2 2.1-2.2-2q.7-1.2 2.1-2.1l2.3 2zm24 .3q5.3 4.6 8.8 1.6l6.5-5.3q5.9-4.5 10.8 3-4.9-4.3-8.8-.8l-6.6 5.4q-5.6 3.2-10.6-4zm-15.8 0q5.3 4.6 8.8 1.6L540 12q5.8-4.5 10.8 3-5-4.3-8.8-.8l-6.6 5.4q-5.6 3.2-10.7-4zm39-.3q-1.1.8-2.2 2l-2.2-1.9q.7-1.2 2.1-2.2l2.2 2.1zm-15.6 0l-2.1 2.1-2.2-2q.7-1.2 2.1-2.1l2.2 2zm24.1.3q5.3 4.6 8.8 1.6l6.5-5.3q5.8-4.5 10.8 3-4.9-4.3-8.8-.8l-6.6 5.4q-5.6 3.2-10.7-4zm-15.8 0q5.3 4.6 8.7 1.6l6.5-5.3q5.9-4.5 10.9 3-5-4.3-8.8-.8l-6.7 5.4q-5.5 3.2-10.6-4zm38.9-.3q-1 .8-2.1 2l-2.2-1.9q.6-1.2 2.1-2.2l2.2 2.1zm-15.5 0l-2.1 2.1-2.2-2q.6-1.2 2.1-2.1l2.2 2zm24.1.3q5.3 4.6 8.7 1.6l6.6-5.3q5.8-4.5 10.8 3-5-4.3-8.8-.8l-6.6 5.4q-5.6 3.2-10.7-4zm-15.8 0q5.3 4.6 8.7 1.6l6.5-5.3q5.9-4.5 10.9 3-5-4.3-8.9-.8l-6.6 5.4q-5.6 3.2-10.6-4zm38.9-.3l-2.2 2-2.1-1.9q.6-1.2 2-2.2l2.3 2.1zm-15.5 0l-2.2 2.1-2.1-2q.6-1.2 2-2.1l2.3 2zm-297.6-2.7q-1.3-.9-2.4-2.5l-2.5 2.5q1 1.4 2.4 2.8l2.5-2.8zm15.4-3.6q-1.7-2-6-2.9v.2q1.8.5 2.7 1.4 1 1 1.6 2.7.5 1.6-2.6 3.6l2.6 1.3q1.7-.3 2.5-2.3.8-2-.8-4zM316 30.3q2.3 1.2 4 0 1.8-1.3 1.8-3l-1.8-2.1q-1.3 3.3-3 3.1-1.7 0-2.9-.8-1-.8-1.9-2.4l-.1.1q1.7 4 4 5.1zM317.8 7q-4.2-.3-10 3.8l.2.2q2.5-1.5 4.7-1.6 2.2-.1 4.8 1.2 2.5 1.2 1.5 7l4.3-1.5q1.6-2.4.1-5.6-1.4-3.2-5.6-3.5zm11 11.7q-.7-4.1-6.2-8.6l-.1.2q2 2 2.7 4.1.7 2.1.2 5-.6 2.7-6.4 3.2l2.6 3.8q2.7.9 5.4-1.4 2.7-2.2 1.9-6.3zm-18.5-13q-8.5 5.7-4.3 10t6.7 4.2q2.6-.1 5.2-3.5h-.2q-2 1.6-4.7.5-2.6-1.2-4.7-4.2-2-3 2.1-6.8v-.2zm4 1.5Q307.7-3 303.5 3q-4.2 5.9-4 9.2.3 3.3 4 6.2v-.2q-1.8-2.4-.8-6 1-3.5 4-6.6 3-3 7.2 1.8h.2zm10 3.5q2.9-9.8-3-10.5-6-.7-8 1-1.8 1.7-1.7 6l.2-.2q.5-2.5 3.2-3.3 2.8-.7 6.3.3t2.7 6.6h.2zm-7.1 3.3q-1-.6-1.7-1.8l-2 1.8 1.9 2.1 1.8-2.1zm-10.6 1q-2 10 4 10 6 .1 7.7-1.7 1.7-2 1.2-6.1h-.2q-.2 2.7-2.9 3.7-2.6 1-6.2.4t-3.4-6.3h-.2zm-.4 13.1q4.1.4 10-3.5l-.1-.2q-2.6 1.4-4.8 1.5-2.2 0-4.7-1.3-2.5-1.4-1.3-7.1l-4.4 1.4q-1.6 2.4-.3 5.6 1.4 3.3 5.6 3.6zm-26.7-12.4q-5.3 4.6-8.7 1.6l-6.5-5.3q-5.9-4.5-10.9 3 5-4.3 8.8-.8l6.7 5.4q5.5 3.2 10.6-4zm15.8 0q-5.2 4.6-8.7 1.6l-6.5-5.3q-5.9-4.5-10.8 3 4.9-4.3 8.8-.8l6.6 5.4q5.6 3.2 10.6-4zm-38.9-.3l2.2 2 2.2-1.9q-.7-1.2-2.2-2.2l-2.2 2.1zm15.5 0l2.2 2.1 2.2-2q-.7-1.2-2.2-2.1l-2.2 2zm-24 .3q-5.4 4.6-8.8 1.6l-6.5-5.3q-5.9-4.5-10.9 3 5-4.3 8.9-.8l6.6 5.4q5.6 3.2 10.6-4zm15.8 0q-5.3 4.6-8.8 1.6l-6.5-5.3q-5.8-4.5-10.8 3 4.9-4.3 8.8-.8l6.6 5.4q5.6 3.2 10.7-4zm-39-.3q1.1.8 2.2 2l2.2-1.9q-.7-1.2-2.1-2.2l-2.2 2.1zm15.6 0q1 .9 2 2.1l2.3-2q-.7-1.2-2.1-2.1l-2.2 2zm-24.1.3q-5.3 4.6-8.8 1.6L201 12q-5.9-4.5-10.8 3 4.9-4.3 8.8-.8l6.6 5.4q5.6 3.2 10.7-4zm15.8 0q-5.3 4.6-8.7 1.6l-6.6-5.3Q211 7.5 206 15q5-4.3 8.8-.8l6.6 5.4q5.6 3.2 10.7-4zm-39-.3q1.1.8 2.2 2l2.2-1.9q-.6-1.2-2.1-2.2l-2.2 2.1zm15.6 0l2.1 2.1 2.2-2q-.6-1.2-2.1-2.1l-2.2 2zm-24.1.3q-5.3 4.6-8.8 1.6l-6.5-5.3q-5.8-4.5-10.8 3 4.9-4.3 8.8-.8l6.6 5.4q5.6 3.2 10.7-4zm15.8 0q-5.3 4.6-8.7 1.6L185 12q-5.9-4.5-10.9 3 5-4.3 8.8-.8l6.7 5.4q5.6 3.2 10.6-4zm-38.9-.3q1 .8 2.1 2l2.2-1.9q-.6-1.2-2-2.2l-2.3 2.1zm15.5 0l2.1 2.1 2.2-2q-.6-1.2-2-2.1l-2.3 2zm-24.1.3q-5.3 4.6-8.7 1.6l-6.5-5.3q-6-4.5-10.9 3 5-4.3 8.8-.8l6.7 5.4q5.5 3.2 10.6-4zm15.8 0q-5.3 4.6-8.7 1.6l-6.5-5.3q-5.9-4.5-10.9 3 5-4.3 8.9-.8l6.6 5.4q5.6 3.2 10.6-4zm-38.9-.3l2.2 2 2.2-1.9q-.7-1.2-2.2-2.2l-2.2 2.1zm15.5 0l2.2 2.1 2.2-2q-.7-1.2-2.2-2.1l-2.2 2zm-24 .3q-5.4 4.6-8.8 1.6l-6.5-5.3Q100 7.5 95 15q5-4.3 8.8-.8l6.7 5.4q5.6 3.2 10.6-4zm15.8 0q-5.3 4.6-8.8 1.6l-6.5-5.3q-5.9-4.5-10.8 3 4.9-4.3 8.8-.8l6.6 5.4q5.6 3.2 10.7-4zm-39-.3q1.1.8 2.2 2l2.2-1.9q-.7-1.2-2.1-2.2L98 15.4zm15.5 0l2.2 2.1 2.2-2q-.7-1.2-2.1-2.1l-2.3 2zm-24 .3q-5.3 4.6-8.8 1.6L74.2 12q-5.9-4.5-10.8 3 4.9-4.3 8.8-.8l6.6 5.4q5.6 3.2 10.6-4zm15.8 0q-5.3 4.6-8.8 1.6L90 12q-5.8-4.5-10.8 3 5-4.3 8.8-.8l6.6 5.4q5.6 3.2 10.7-4zm-39-.3q1.1.8 2.2 2l2.2-1.9q-.7-1.2-2.1-2.2l-2.2 2.1zm15.6 0l2.1 2.1 2.2-2q-.7-1.2-2.1-2.1l-2.2 2zm-24.1.3q-5.3 4.6-8.8 1.6L42.5 12q-5.8-4.5-10.8 3 4.9-4.3 8.8-.8l6.6 5.4q5.6 3.2 10.7-4zm15.8 0q-5.3 4.6-8.7 1.6L58.4 12q-5.9-4.5-10.9 3 5-4.3 8.8-.8l6.7 5.4q5.5 3.2 10.6-4zm-38.9-.3q1 .8 2.1 2l2.2-1.9q-.6-1.2-2.1-2.2l-2.2 2.1zm15.5 0l2.1 2.1 2.2-2q-.6-1.2-2.1-2.1l-2.2 2zm-24.1.3q-5.3 4.6-8.7 1.6L10.8 12Q5 7.5 0 15q5-4.3 8.8-.8l6.6 5.4q5.6 3.2 10.7-4zm15.8 0q-5.3 4.6-8.7 1.6L26.7 12q-5.9-4.5-10.9 3 5-4.3 8.9-.8l6.6 5.4q5.6 3.2 10.6-4zM3 15.4l2.2 2 2.1-1.9q-.6-1.2-2-2.2L3 15.4zm15.5 0l2.2 2.1 2.1-2q-.6-1.2-2-2.1l-2.3 2z"/></svg>